<?xml version="1.0" encoding="UTF-8" standalone="no"?>
<svg
   xmlns:dc="http://purl.org/dc/elements/1.1/"
   xmlns:cc="http://creativecommons.org/ns#"
   xmlns:rdf="http://www.w3.org/1999/02/22-rdf-syntax-ns#"
   xmlns:svg="http://www.w3.org/2000/svg"
   xmlns="http://www.w3.org/2000/svg"
   xmlns:xlink="http://www.w3.org/1999/xlink"
   xmlns:sodipodi="http://sodipodi.sourceforge.net/DTD/sodipodi-0.dtd"
   xmlns:inkscape="http://www.inkscape.org/namespaces/inkscape"
   width="450"
   height="400"
   viewBox="0 0 450 400"
   id="svg2"
   version="1.1"
   inkscape:version="0.48.4 r9939"
   sodipodi:docname="intro.svg">
  <metadata
     id="metadata665">
    <rdf:RDF>
      <cc:Work
         rdf:about="">
        <dc:format>image/svg+xml</dc:format>
        <dc:type
           rdf:resource="http://purl.org/dc/dcmitype/StillImage" />
        <dc:title></dc:title>
      </cc:Work>
    </rdf:RDF>
  </metadata>
  <defs
     id="defs663">
    <linearGradient
       inkscape:collect="always"
       id="linearGradient5961">
      <stop
         style="stop-color:#00006d;stop-opacity:1;"
         offset="0"
         id="stop5963" />
      <stop
         style="stop-color:#00006d;stop-opacity:0;"
         offset="1"
         id="stop5965" />
    </linearGradient>
    <inkscape:perspective
       sodipodi:type="inkscape:persp3d"
       inkscape:vp_x="200 : 128.81356 : 1"
       inkscape:vp_y="0 : 1000 : 0"
       inkscape:vp_z="450 : 200 : 1"
       inkscape:persp3d-origin="225 : 133.33333 : 1"
       id="perspective3665" />
    <linearGradient
       inkscape:collect="always"
       xlink:href="#linearGradient5961"
       id="linearGradient5967"
       x1="23.965698"
       y1="193.61676"
       x2="428.91101"
       y2="193.61676"
       gradientUnits="userSpaceOnUse" />
  </defs>
  <sodipodi:namedview
     pagecolor="#ffffff"
     bordercolor="#666666"
     borderopacity="1"
     objecttolerance="10"
     gridtolerance="10"
     guidetolerance="10"
     inkscape:pageopacity="0"
     inkscape:pageshadow="2"
     inkscape:window-width="1301"
     inkscape:window-height="744"
     id="namedview661"
     showgrid="false"
     inkscape:zoom="0.59"
     inkscape:cx="225"
     inkscape:cy="200"
     inkscape:window-x="65"
     inkscape:window-y="24"
     inkscape:window-maximized="1"
     inkscape:current-layer="svg2" />
  <view
     id="ei-archive"
     viewBox="50 0 50 50" />
  <svg
     viewBox="0 0 50 50"
     width="50"
     height="50"
     x="50"
     id="svg5"
     version="1.1"
     style="fill:#008000">
    <path
       d="M42 20h-2v-5c0-.6-.4-1-1-1H11c-.6 0-1 .4-1 1v5H8v-5c0-1.7 1.3-3 3-3h28c1.7 0 3 1.3 3 3v5z"
       id="path7"
       style="fill:#008000" />
    <path
       d="M37 40H13c-1.7 0-3-1.3-3-3V20h2v17c0 .6.4 1 1 1h24c.6 0 1-.4 1-1V20h2v17c0 1.7-1.3 3-3 3z"
       id="path9"
       style="fill:#008000" />
    <path
       d="M29 26h-8c-.6 0-1-.4-1-1s.4-1 1-1h8c.6 0 1 .4 1 1s-.4 1-1 1z"
       id="path11"
       style="fill:#008000" />
    <path
       d="M8 18h34v2H8z"
       id="path13"
       style="fill:#008000" />
  </svg>
  <view
     id="ei-arrow-down"
     viewBox="200 250 50 50" />
  <svg
     viewBox="0 0 50 50"
     width="50"
     height="50"
     x="200"
     y="250"
     id="svg16"
     version="1.1"
     style="fill:#008000">
    <path
       d="M25 42c-9.4 0-17-7.6-17-17S15.6 8 25 8s17 7.6 17 17-7.6 17-17 17zm0-32c-8.3 0-15 6.7-15 15s6.7 15 15 15 15-6.7 15-15-6.7-15-15-15z"
       id="path18"
       style="fill:#008000" />
    <path
       d="M25 34.4l-9.7-9.7 1.4-1.4 8.3 8.3 8.3-8.3 1.4 1.4z"
       id="path20"
       style="fill:#008000" />
    <path
       d="M24 16h2v17h-2z"
       id="path22"
       style="fill:#008000" />
  </svg>
  <view
     id="ei-arrow-left"
     viewBox="0 50 50 50" />
  <svg
     viewBox="0 0 50 50"
     width="50"
     height="50"
     y="50"
     id="svg25"
     version="1.1"
     style="fill:#008000">
    <path
       d="M25 42c-9.4 0-17-7.6-17-17S15.6 8 25 8s17 7.6 17 17-7.6 17-17 17zm0-32c-8.3 0-15 6.7-15 15s6.7 15 15 15 15-6.7 15-15-6.7-15-15-15z"
       id="path27"
       style="fill:#008000" />
    <path
       d="M25.3 34.7L15.6 25l9.7-9.7 1.4 1.4-8.3 8.3 8.3 8.3z"
       id="path29"
       style="fill:#008000" />
    <path
       d="M17 24h17v2H17z"
       id="path31"
       style="fill:#008000" />
  </svg>
  <view
     id="ei-arrow-right"
     viewBox="50 50 50 50" />
  <svg
     viewBox="0 0 50 50"
     width="50"
     height="50"
     x="50"
     y="50"
     id="svg34"
     version="1.1"
     style="fill:#008000">
    <path
       d="M25 42c-9.4 0-17-7.6-17-17S15.6 8 25 8s17 7.6 17 17-7.6 17-17 17zm0-32c-8.3 0-15 6.7-15 15s6.7 15 15 15 15-6.7 15-15-6.7-15-15-15z"
       id="path36"
       style="fill:#008000" />
    <path
       d="M24.7 34.7l-1.4-1.4 8.3-8.3-8.3-8.3 1.4-1.4 9.7 9.7z"
       id="path38"
       style="fill:#008000" />
    <path
       d="M16 24h17v2H16z"
       id="path40"
       style="fill:#008000" />
  </svg>
  <view
     id="ei-arrow-up"
     viewBox="100 0 50 50" />
  <svg
     viewBox="0 0 50 50"
     width="50"
     height="50"
     x="100"
     id="svg43"
     version="1.1"
     style="fill:#008000">
    <path
       d="M25 42c-9.4 0-17-7.6-17-17S15.6 8 25 8s17 7.6 17 17-7.6 17-17 17zm0-32c-8.3 0-15 6.7-15 15s6.7 15 15 15 15-6.7 15-15-6.7-15-15-15z"
       id="path45"
       style="fill:#008000" />
    <path
       d="M33.3 26.7L25 18.4l-8.3 8.3-1.4-1.4 9.7-9.7 9.7 9.7z"
       id="path47"
       style="fill:#008000" />
    <path
       d="M24 17h2v17h-2z"
       id="path49"
       style="fill:#008000" />
  </svg>
  <view
     id="ei-bell"
     viewBox="100 50 50 50" />
  <svg
     viewBox="0 0 50 50"
     width="50"
     height="50"
     x="100"
     y="50"
     id="svg52"
     version="1.1"
     style="fill:#008000">
    <path
       d="M42 36c-6.5 0-7.4-6.3-8.2-11.9C32.9 17.9 32.1 12 25 12s-7.9 5.9-8.8 12.1C15.4 29.7 14.5 36 8 36v-2c4.6 0 5.3-3.9 6.2-10.1.9-6.2 2-13.9 10.8-13.9s9.9 7.7 10.8 13.9C36.7 30.1 37.4 34 42 34v2z"
       id="path54"
       style="fill:#008000" />
    <path
       d="M25 40c-2.8 0-5-2.2-5-5h2c0 1.7 1.3 3 3 3s3-1.3 3-3h2c0 2.8-2.2 5-5 5z"
       id="path56"
       style="fill:#008000" />
    <path
       d="M8 34h34v2H8z"
       id="path58"
       style="fill:#008000" />
    <path
       d="M27 10c0 1.1-.9 1.5-2 1.5s-2-.4-2-1.5.9-2 2-2 2 .9 2 2z"
       id="path60"
       style="fill:#008000" />
  </svg>
  <view
     id="ei-calendar"
     viewBox="0 100 50 50" />
  <svg
     viewBox="0 0 50 50"
     width="50"
     height="50"
     y="100"
     id="svg63"
     version="1.1"
     style="fill:#008000">
    <path
       d="M37 38H13c-1.7 0-3-1.3-3-3V13c0-1.7 1.1-3 2.5-3H14v2h-1.5c-.2 0-.5.4-.5 1v22c0 .6.4 1 1 1h24c.6 0 1-.4 1-1V13c0-.6-.3-1-.5-1H36v-2h1.5c1.4 0 2.5 1.3 2.5 3v22c0 1.7-1.3 3-3 3z"
       id="path65"
       style="fill:#008000" />
    <path
       d="M17 14c-.6 0-1-.4-1-1V9c0-.6.4-1 1-1s1 .4 1 1v4c0 .6-.4 1-1 1z"
       id="path67"
       style="fill:#008000" />
    <path
       d="M33 14c-.6 0-1-.4-1-1V9c0-.6.4-1 1-1s1 .4 1 1v4c0 .6-.4 1-1 1z"
       id="path69"
       style="fill:#008000" />
    <path
       d="M20 10h10v2H20z"
       id="path71"
       style="fill:#008000" />
    <path
       d="M12 16h26v2H12z"
       id="path73"
       style="fill:#008000" />
    <path
       d="M34 20h2v2h-2z"
       id="path75"
       style="fill:#008000" />
    <path
       d="M30 20h2v2h-2z"
       id="path77"
       style="fill:#008000" />
    <path
       d="M26 20h2v2h-2z"
       id="path79"
       style="fill:#008000" />
    <path
       d="M22 20h2v2h-2z"
       id="path81"
       style="fill:#008000" />
    <path
       d="M18 20h2v2h-2z"
       id="path83"
       style="fill:#008000" />
    <path
       d="M34 24h2v2h-2z"
       id="path85"
       style="fill:#008000" />
    <path
       d="M30 24h2v2h-2z"
       id="path87"
       style="fill:#008000" />
    <path
       d="M26 24h2v2h-2z"
       id="path89"
       style="fill:#008000" />
    <path
       d="M22 24h2v2h-2z"
       id="path91"
       style="fill:#008000" />
    <path
       d="M18 24h2v2h-2z"
       id="path93"
       style="fill:#008000" />
    <path
       d="M14 24h2v2h-2z"
       id="path95"
       style="fill:#008000" />
    <path
       d="M34 28h2v2h-2z"
       id="path97"
       style="fill:#008000" />
    <path
       d="M30 28h2v2h-2z"
       id="path99"
       style="fill:#008000" />
    <path
       d="M26 28h2v2h-2z"
       id="path101"
       style="fill:#008000" />
    <path
       d="M22 28h2v2h-2z"
       id="path103"
       style="fill:#008000" />
    <path
       d="M18 28h2v2h-2z"
       id="path105"
       style="fill:#008000" />
    <path
       d="M14 28h2v2h-2z"
       id="path107"
       style="fill:#008000" />
    <path
       d="M30 32h2v2h-2z"
       id="path109"
       style="fill:#008000" />
    <path
       d="M26 32h2v2h-2z"
       id="path111"
       style="fill:#008000" />
    <path
       d="M22 32h2v2h-2z"
       id="path113"
       style="fill:#008000" />
    <path
       d="M18 32h2v2h-2z"
       id="path115"
       style="fill:#008000" />
    <path
       d="M14 32h2v2h-2z"
       id="path117"
       style="fill:#008000" />
  </svg>
  <view
     id="ei-camera"
     viewBox="50 100 50 50" />
  <svg
     viewBox="0 0 50 50"
     width="50"
     height="50"
     x="50"
     y="100"
     id="svg120"
     version="1.1"
     style="fill:#008000">
    <path
       d="M39 38H11c-1.7 0-3-1.3-3-3V17c0-1.7 1.3-3 3-3h6c.2 0 .5-.2.6-.3l1.1-2.2c.4-.8 1.4-1.4 2.3-1.4h8c.9 0 1.9.6 2.3 1.4l1.1 2.2c.1.2.4.3.6.3h6c1.7 0 3 1.3 3 3v18c0 1.7-1.3 3-3 3zM11 16c-.6 0-1 .4-1 1v18c0 .6.4 1 1 1h28c.6 0 1-.4 1-1V17c0-.6-.4-1-1-1h-6c-.9 0-1.9-.6-2.3-1.4l-1.1-2.2c-.1-.2-.4-.4-.6-.4h-8c-.2 0-.5.2-.6.3l-1.1 2.2c-.4.9-1.4 1.5-2.3 1.5h-6z"
       id="path122"
       style="fill:#008000" />
    <path
       d="M25 34c-5 0-9-4-9-9s4-9 9-9 9 4 9 9-4 9-9 9zm0-16c-3.9 0-7 3.1-7 7s3.1 7 7 7 7-3.1 7-7-3.1-7-7-7z"
       id="path124"
       style="fill:#008000" />
    <circle
       cx="35"
       cy="18"
       r="1"
       id="circle126"
       style="fill:#008000"
       d="m 36,18 c 0,0.552285 -0.447715,1 -1,1 -0.552285,0 -1,-0.447715 -1,-1 0,-0.552285 0.447715,-1 1,-1 0.552285,0 1,0.447715 1,1 z" />
    <path
       d="M12 12h4v1h-4z"
       id="path128"
       style="fill:#008000" />
    <path
       d="M25 21v-1c-2.8 0-5 2.2-5 5h1c0-2.2 1.8-4 4-4z"
       id="path130"
       style="fill:#008000" />
  </svg>
  <view
     id="ei-cart"
     viewBox="100 100 50 50" />
  <svg
     viewBox="0 0 50 50"
     width="50"
     height="50"
     x="100"
     y="100"
     id="svg133"
     version="1.1"
     style="fill:#008000">
    <path
       d="M35 34H13c-.3 0-.6-.2-.8-.4s-.2-.6-.1-.9l1.9-4.8L12.1 10H6V8h7c.5 0 .9.4 1 .9l2 19c0 .2 0 .3-.1.5L14.5 32H36l-1 2z"
       id="path135"
       style="fill:#008000" />
    <path
       d="M15.2 29l-.4-2L38 22.2V14H14v-2h25c.6 0 1 .4 1 1v10c0 .5-.3.9-.8 1l-24 5z"
       id="path137"
       style="fill:#008000" />
    <path
       d="M36 40c-2.2 0-4-1.8-4-4s1.8-4 4-4 4 1.8 4 4-1.8 4-4 4zm0-6c-1.1 0-2 .9-2 2s.9 2 2 2 2-.9 2-2-.9-2-2-2z"
       id="path139"
       style="fill:#008000" />
    <path
       d="M12 40c-2.2 0-4-1.8-4-4s1.8-4 4-4 4 1.8 4 4-1.8 4-4 4zm0-6c-1.1 0-2 .9-2 2s.9 2 2 2 2-.9 2-2-.9-2-2-2z"
       id="path141"
       style="fill:#008000" />
  </svg>
  <view
     id="ei-chart"
     viewBox="150 0 50 50" />
  <svg
     viewBox="0 0 50 50"
     width="50"
     height="50"
     x="150"
     id="svg144"
     version="1.1"
     style="fill:#008000">
    <path
       d="M18 36h-2V26h-4v10h-2V24h8z"
       id="path146"
       style="fill:#008000" />
    <path
       d="M28 36h-2V20h-4v16h-2V18h8z"
       id="path148"
       style="fill:#008000" />
    <path
       d="M38 36h-2V14h-4v22h-2V12h8z"
       id="path150"
       style="fill:#008000" />
    <path
       d="M8 36h32v2H8z"
       id="path152"
       style="fill:#008000" />
  </svg>
  <view
     id="ei-check"
     viewBox="150 50 50 50" />
  <svg
     viewBox="0 0 50 50"
     width="50"
     height="50"
     x="150"
     y="50"
     id="svg155"
     version="1.1"
     style="fill:#008000">
    <path
       d="M25 42c-9.4 0-17-7.6-17-17S15.6 8 25 8s17 7.6 17 17-7.6 17-17 17zm0-32c-8.3 0-15 6.7-15 15s6.7 15 15 15 15-6.7 15-15-6.7-15-15-15z"
       id="path157"
       style="fill:#008000" />
    <path
       d="M23 32.4l-8.7-8.7 1.4-1.4 7.3 7.3 11.3-11.3 1.4 1.4z"
       id="path159"
       style="fill:#008000" />
  </svg>
  <view
     id="ei-chevron-down"
     viewBox="150 100 50 50" />
  <svg
     viewBox="0 0 50 50"
     width="50"
     height="50"
     x="150"
     y="100"
     id="svg162"
     version="1.1"
     style="fill:#008000">
    <path
       d="M25 32.4l-9.7-9.7 1.4-1.4 8.3 8.3 8.3-8.3 1.4 1.4z"
       id="path164"
       style="fill:#008000" />
  </svg>
  <view
     id="ei-chevron-left"
     viewBox="0 150 50 50" />
  <svg
     viewBox="0 0 50 50"
     width="50"
     height="50"
     y="150"
     id="svg167"
     version="1.1"
     style="fill:#008000">
    <path
       d="M27.3 34.7L17.6 25l9.7-9.7 1.4 1.4-8.3 8.3 8.3 8.3z"
       id="path169"
       style="fill:#008000" />
  </svg>
  <view
     id="ei-chevron-right"
     viewBox="50 150 50 50" />
  <svg
     viewBox="0 0 50 50"
     width="50"
     height="50"
     x="50"
     y="150"
     id="svg172"
     version="1.1"
     style="fill:#008000">
    <path
       d="M22.7 34.7l-1.4-1.4 8.3-8.3-8.3-8.3 1.4-1.4 9.7 9.7z"
       id="path174"
       style="fill:#008000" />
  </svg>
  <view
     id="ei-chevron-up"
     viewBox="100 150 50 50" />
  <svg
     viewBox="0 0 50 50"
     width="50"
     height="50"
     x="100"
     y="150"
     id="svg177"
     version="1.1"
     style="fill:#008000">
    <path
       d="M33.3 28.7L25 20.4l-8.3 8.3-1.4-1.4 9.7-9.7 9.7 9.7z"
       id="path179"
       style="fill:#008000" />
  </svg>
  <view
     id="ei-clock"
     viewBox="150 150 50 50" />
  <svg
     viewBox="0 0 50 50"
     width="50"
     height="50"
     x="150"
     y="150"
     id="svg182"
     version="1.1"
     style="fill:#008000">
    <path
       d="M25 42c-9.4 0-17-7.6-17-17S15.6 8 25 8s17 7.6 17 17-7.6 17-17 17zm0-32c-8.3 0-15 6.7-15 15s6.7 15 15 15 15-6.7 15-15-6.7-15-15-15z"
       id="path184"
       style="fill:#008000" />
    <path
       d="M30.3 33.7L24 27.4V16h2v10.6l5.7 5.7z"
       id="path186"
       style="fill:#008000" />
  </svg>
  <view
     id="ei-close"
     viewBox="200 0 50 50" />
  <svg
     viewBox="0 0 50 50"
     width="50"
     height="50"
     x="200"
     id="svg189"
     version="1.1"
     style="fill:#008000">
    <path
       d="M37.304 11.282l1.414 1.414-26.022 26.02-1.414-1.413z"
       id="path191"
       style="fill:#008000" />
    <path
       d="M12.696 11.282l26.022 26.02-1.414 1.415-26.022-26.02z"
       id="path193"
       style="fill:#008000" />
  </svg>
  <view
     id="ei-close-o"
     viewBox="200 50 50 50" />
  <svg
     viewBox="0 0 50 50"
     width="50"
     height="50"
     x="200"
     y="50"
     id="svg196"
     version="1.1"
     style="fill:#008000">
    <path
       d="M25 42c-9.4 0-17-7.6-17-17S15.6 8 25 8s17 7.6 17 17-7.6 17-17 17zm0-32c-8.3 0-15 6.7-15 15s6.7 15 15 15 15-6.7 15-15-6.7-15-15-15z"
       id="path198"
       style="fill:#008000" />
    <path
       d="M32.283 16.302l1.414 1.415-15.98 15.98-1.414-1.414z"
       id="path200"
       style="fill:#008000" />
    <path
       d="M17.717 16.302l15.98 15.98-1.414 1.415-15.98-15.98z"
       id="path202"
       style="fill:#008000" />
  </svg>
  <view
     id="ei-comment"
     viewBox="200 100 50 50" />
  <svg
     viewBox="0 0 50 50"
     width="50"
     height="50"
     x="200"
     y="100"
     id="svg205"
     version="1.1"
     style="fill:#008000">
    <path
       d="M15 42h-2l1.2-1.6c.8-1.1 1.3-2.5 1.6-4.2C10.8 33.9 8 29.6 8 24c0-8.6 6.5-14 17-14s17 5.4 17 14c0 8.8-6.4 14-17 14h-.7c-1.6 1.9-4.4 4-9.3 4zm10-30c-9.4 0-15 4.5-15 12 0 6.4 3.9 9.4 7.2 10.7l.7.3-.1.8c-.2 1.6-.5 3-1.1 4.2 3.3-.4 5.2-2.1 6.3-3.5l.3-.4H25c13.5 0 15-8.4 15-12C40 16.5 34.4 12 25 12z"
       id="path207"
       style="fill:#008000" />
  </svg>
  <view
     id="ei-credit-card"
     viewBox="200 150 50 50" />
  <svg
     viewBox="0 0 50 50"
     width="50"
     height="50"
     x="200"
     y="150"
     id="svg210"
     version="1.1"
     style="fill:#008000">
    <path
       d="M39 38H11c-1.7 0-3-1.3-3-3V15c0-1.7 1.3-3 3-3h28c1.7 0 3 1.3 3 3v20c0 1.7-1.3 3-3 3zM11 14c-.6 0-1 .4-1 1v20c0 .6.4 1 1 1h28c.6 0 1-.4 1-1V15c0-.6-.4-1-1-1H11z"
       id="path212"
       style="fill:#008000" />
    <path
       d="M9 16h32v6H9z"
       id="path214"
       style="fill:#008000" />
    <path
       d="M12 26h1v2h-1z"
       id="path216"
       style="fill:#008000" />
    <path
       d="M14 26h1v2h-1z"
       id="path218"
       style="fill:#008000" />
    <path
       d="M16 26h1v2h-1z"
       id="path220"
       style="fill:#008000" />
    <path
       d="M19 26h1v2h-1z"
       id="path222"
       style="fill:#008000" />
    <path
       d="M21 26h1v2h-1z"
       id="path224"
       style="fill:#008000" />
    <path
       d="M23 26h1v2h-1z"
       id="path226"
       style="fill:#008000" />
    <path
       d="M26 26h1v2h-1z"
       id="path228"
       style="fill:#008000" />
    <path
       d="M28 26h1v2h-1z"
       id="path230"
       style="fill:#008000" />
    <path
       d="M30 26h1v2h-1z"
       id="path232"
       style="fill:#008000" />
    <path
       d="M33 26h1v2h-1z"
       id="path234"
       style="fill:#008000" />
    <path
       d="M35 26h1v2h-1z"
       id="path236"
       style="fill:#008000" />
    <path
       d="M37 26h1v2h-1z"
       id="path238"
       style="fill:#008000" />
  </svg>
  <view
     id="ei-envelope"
     viewBox="0 200 50 50" />
  <svg
     viewBox="0 0 50 50"
     width="50"
     height="50"
     y="200"
     id="svg241"
     version="1.1"
     style="fill:#008000">
    <path
       d="M31.796 24.244l9.97 9.97-1.415 1.414-9.97-9.97z"
       id="path243"
       style="fill:#008000"
       opacity=".9" />
    <path
       d="M18.278 24.287l1.414 1.414-9.9 9.9-1.414-1.41z"
       id="path245"
       style="fill:#008000"
       opacity=".9" />
    <path
       d="M25 29.9c-1.5 0-3.1-.6-4.2-1.8L8.3 15.7l1.4-1.4 12.5 12.5c1.6 1.6 4.1 1.6 5.7 0l12.5-12.5 1.4 1.4-12.6 12.5c-1.1 1.1-2.7 1.7-4.2 1.7z"
       id="path247"
       style="fill:#008000" />
    <path
       d="M39 38H11c-1.7 0-3-1.3-3-3V15c0-1.7 1.3-3 3-3h28c1.7 0 3 1.3 3 3v20c0 1.7-1.3 3-3 3zM11 14c-.6 0-1 .4-1 1v20c0 .6.4 1 1 1h28c.6 0 1-.4 1-1V15c0-.6-.4-1-1-1H11z"
       id="path249"
       style="fill:#008000" />
  </svg>
  <view
     id="ei-exclamation"
     viewBox="50 200 50 50" />
  <svg
     viewBox="0 0 50 50"
     width="50"
     height="50"
     x="50"
     y="200"
     id="svg252"
     version="1.1"
     style="fill:#008000">
    <path
       d="M25 42c-9.4 0-17-7.6-17-17S15.6 8 25 8s17 7.6 17 17-7.6 17-17 17zm0-32c-8.3 0-15 6.7-15 15s6.7 15 15 15 15-6.7 15-15-6.7-15-15-15z"
       id="path254"
       style="fill:#008000" />
    <path
       d="M24 32h2v2h-2z"
       id="path256"
       style="fill:#008000" />
    <path
       d="M25.6 30h-1.2l-.4-8v-6h2v6z"
       id="path258"
       style="fill:#008000" />
  </svg>
  <view
     id="ei-external-link"
     viewBox="100 200 50 50" />
  <svg
     viewBox="0 0 50 50"
     width="50"
     height="50"
     x="100"
     y="200"
     id="svg261"
     version="1.1"
     style="fill:#008000">
    <path
       d="M38.288 10.297l1.414 1.415-14.99 14.99-1.414-1.414z"
       id="path263"
       style="fill:#008000" />
    <path
       d="M40 20h-2v-8h-8v-2h10z"
       id="path265"
       style="fill:#008000" />
    <path
       d="M35 38H15c-1.7 0-3-1.3-3-3V15c0-1.7 1.3-3 3-3h11v2H15c-.6 0-1 .4-1 1v20c0 .6.4 1 1 1h20c.6 0 1-.4 1-1V24h2v11c0 1.7-1.3 3-3 3z"
       id="path267"
       style="fill:#008000" />
  </svg>
  <view
     id="ei-eye"
     viewBox="150 200 50 50" />
  <svg
     viewBox="0 0 50 50"
     width="50"
     height="50"
     x="150"
     y="200"
     id="svg270"
     version="1.1"
     style="fill:#008000">
    <path
       d="M25 36C13.5 36 8.3 25.9 8.1 25.4c-.1-.3-.1-.6 0-.9C8.3 24.1 13.5 14 25 14s16.7 10.1 16.9 10.6c.1.3.1.6 0 .9-.2.4-5.4 10.5-16.9 10.5zM10.1 25c1.1 1.9 5.9 9 14.9 9s13.7-7.1 14.9-9c-1.1-1.9-5.9-9-14.9-9s-13.7 7.1-14.9 9z"
       id="path272"
       style="fill:#008000" />
    <path
       d="M25 34c-5 0-9-4-9-9s4-9 9-9 9 4 9 9-4 9-9 9zm0-16c-3.9 0-7 3.1-7 7s3.1 7 7 7 7-3.1 7-7-3.1-7-7-7z"
       id="path274"
       style="fill:#008000" />
    <path
       d="M25 30c-2.8 0-5-2.2-5-5 0-.6.4-1 1-1s1 .4 1 1c0 1.7 1.3 3 3 3s3-1.3 3-3-1.3-3-3-3c-.6 0-1-.4-1-1s.4-1 1-1c2.8 0 5 2.2 5 5s-2.2 5-5 5z"
       id="path276"
       style="fill:#008000" />
  </svg>
  <view
     id="ei-gear"
     viewBox="200 200 50 50" />
  <svg
     viewBox="0 0 50 50"
     width="50"
     height="50"
     x="200"
     y="200"
     id="svg279"
     version="1.1"
     style="fill:#008000">
    <path
       d="M25 34c-5 0-9-4-9-9s4-9 9-9 9 4 9 9-4 9-9 9zm0-16c-3.9 0-7 3.1-7 7s3.1 7 7 7 7-3.1 7-7-3.1-7-7-7z"
       id="path281"
       style="fill:#008000" />
    <path
       d="M27.7 44h-5.4l-1.5-4.6c-1-.3-2-.7-2.9-1.2l-4.4 2.2-3.8-3.8 2.2-4.4c-.5-.9-.9-1.9-1.2-2.9L6 27.7v-5.4l4.6-1.5c.3-1 .7-2 1.2-2.9l-2.2-4.4 3.8-3.8 4.4 2.2c.9-.5 1.9-.9 2.9-1.2L22.3 6h5.4l1.5 4.6c1 .3 2 .7 2.9 1.2l4.4-2.2 3.8 3.8-2.2 4.4c.5.9.9 1.9 1.2 2.9l4.6 1.5v5.4l-4.6 1.5c-.3 1-.7 2-1.2 2.9l2.2 4.4-3.8 3.8-4.4-2.2c-.9.5-1.9.9-2.9 1.2L27.7 44zm-4-2h2.6l1.4-4.3.5-.1c1.2-.3 2.3-.8 3.4-1.4l.5-.3 4 2 1.8-1.8-2-4 .3-.5c.6-1 1.1-2.2 1.4-3.4l.1-.5 4.3-1.4v-2.6l-4.3-1.4-.1-.5c-.3-1.2-.8-2.3-1.4-3.4l-.3-.5 2-4-1.8-1.8-4 2-.5-.3c-1.1-.6-2.2-1.1-3.4-1.4l-.5-.1L26.3 8h-2.6l-1.4 4.3-.5.1c-1.2.3-2.3.8-3.4 1.4l-.5.3-4-2-1.8 1.8 2 4-.3.5c-.6 1-1.1 2.2-1.4 3.4l-.1.5L8 23.7v2.6l4.3 1.4.1.5c.3 1.2.8 2.3 1.4 3.4l.3.5-2 4 1.8 1.8 4-2 .5.3c1.1.6 2.2 1.1 3.4 1.4l.5.1 1.4 4.3z"
       id="path283"
       style="fill:#008000" />
  </svg>
  <view
     id="ei-heart"
     viewBox="250 0 50 50" />
  <svg
     viewBox="0 0 50 50"
     width="50"
     height="50"
     x="250"
     id="svg286"
     version="1.1"
     style="fill:#008000">
    <path
       d="M25 39.7l-.6-.5C11.5 28.7 8 25 8 19c0-5 4-9 9-9 4.1 0 6.4 2.3 8 4.1 1.6-1.8 3.9-4.1 8-4.1 5 0 9 4 9 9 0 6-3.5 9.7-16.4 20.2l-.6.5zM17 12c-3.9 0-7 3.1-7 7 0 5.1 3.2 8.5 15 18.1 11.8-9.6 15-13 15-18.1 0-3.9-3.1-7-7-7-3.5 0-5.4 2.1-6.9 3.8L25 17.1l-1.1-1.3C22.4 14.1 20.5 12 17 12z"
       id="path288"
       style="fill:#008000" />
  </svg>
  <view
     id="ei-image"
     viewBox="250 50 50 50" />
  <svg
     viewBox="0 0 50 50"
     width="50"
     height="50"
     x="250"
     y="50"
     id="svg291"
     version="1.1"
     style="fill:#008000">
    <path
       d="M39 38H11c-1.7 0-3-1.3-3-3V15c0-1.7 1.3-3 3-3h28c1.7 0 3 1.3 3 3v20c0 1.7-1.3 3-3 3zM11 14c-.6 0-1 .4-1 1v20c0 .6.4 1 1 1h28c.6 0 1-.4 1-1V15c0-.6-.4-1-1-1H11z"
       id="path293"
       style="fill:#008000" />
    <path
       d="M30 24c-2.2 0-4-1.8-4-4s1.8-4 4-4 4 1.8 4 4-1.8 4-4 4zm0-6c-1.1 0-2 .9-2 2s.9 2 2 2 2-.9 2-2-.9-2-2-2z"
       id="path295"
       style="fill:#008000" />
    <path
       d="M35.3 37.7L19 22.4 9.7 31l-1.4-1.4 10.7-10 17.7 16.7z"
       id="path297"
       style="fill:#008000" />
    <path
       d="M40.4 32.7L35 28.3 30.5 32l-1.3-1.6 5.8-4.7 6.6 5.4z"
       id="path299"
       style="fill:#008000" />
  </svg>
  <view
     id="ei-like"
     viewBox="250 100 50 50" />
  <svg
     viewBox="0 0 50 50"
     width="50"
     height="50"
     x="250"
     y="100"
     id="svg302"
     version="1.1"
     style="fill:#008000">
    <path
       d="M40 23.2c0-2.1-1.7-3.2-4-3.2h-6.7c.5-1.8.7-3.5.7-5 0-5.8-1.6-7-3-7-.9 0-1.6.1-2.5.6-.3.2-.4.4-.5.7l-1 5.4c-1.1 2.8-3.8 5.3-6 7V36c.8 0 1.6.4 2.6.9 1.1.5 2.2 1.1 3.4 1.1h9.5c2 0 3.5-1.6 3.5-3 0-.3 0-.5-.1-.7 1.2-.5 2.1-1.5 2.1-2.8 0-.6-.1-1.1-.3-1.6.8-.5 1.5-1.4 1.5-2.4 0-.6-.3-1.2-.6-1.7.8-.6 1.4-1.6 1.4-2.6zm-2.1 0c0 1.3-1.3 1.4-1.5 2-.2.7.8.9.8 2.1 0 1.2-1.5 1.2-1.7 1.9-.2.8.5 1 .5 2.2v.2c-.2 1-1.7 1.1-2 1.5-.3.5 0 .7 0 1.8 0 .6-.7 1-1.5 1H23c-.8 0-1.6-.4-2.6-.9-.8-.4-1.6-.8-2.4-1V23.5c2.5-1.9 5.7-4.7 6.9-8.2v-.2l.9-5c.4-.1.7-.1 1.2-.1.2 0 1 1.2 1 5 0 1.5-.3 3.1-.8 5H27c-.6 0-1 .4-1 1s.4 1 1 1h9c1 0 1.9.5 1.9 1.2z"
       id="path304"
       style="fill:#008000" />
    <path
       d="M16 38h-6c-1.1 0-2-.9-2-2V22c0-1.1.9-2 2-2h6c1.1 0 2 .9 2 2v14c0 1.1-.9 2-2 2zm-6-16v14h6V22h-6z"
       id="path306"
       style="fill:#008000" />
  </svg>
  <view
     id="ei-link"
     viewBox="250 150 50 50" />
  <svg
     viewBox="0 0 50 50"
     width="50"
     height="50"
     x="250"
     y="150"
     id="svg309"
     version="1.1"
     style="fill:#008000">
    <path
       d="M24 30.2c0 .2.1.5.1.8 0 1.4-.5 2.6-1.5 3.6l-2 2c-1 1-2.2 1.5-3.6 1.5-2.8 0-5.1-2.3-5.1-5.1 0-1.4.5-2.6 1.5-3.6l2-2c1-1 2.2-1.5 3.6-1.5.3 0 .5 0 .8.1l1.5-1.5c-.7-.3-1.5-.4-2.3-.4-1.9 0-3.6.7-4.9 2l-2 2c-1.3 1.3-2 3-2 4.9 0 3.8 3.1 6.9 6.9 6.9 1.9 0 3.6-.7 4.9-2l2-2c1.3-1.3 2-3 2-4.9 0-.8-.1-1.6-.4-2.3L24 30.2z"
       id="path311"
       style="fill:#008000" />
    <path
       d="M33 10.1c-1.9 0-3.6.7-4.9 2l-2 2c-1.3 1.3-2 3-2 4.9 0 .8.1 1.6.4 2.3l1.5-1.5c0-.2-.1-.5-.1-.8 0-1.4.5-2.6 1.5-3.6l2-2c1-1 2.2-1.5 3.6-1.5 2.8 0 5.1 2.3 5.1 5.1 0 1.4-.5 2.6-1.5 3.6l-2 2c-1 1-2.2 1.5-3.6 1.5-.3 0-.5 0-.8-.1l-1.5 1.5c.7.3 1.5.4 2.3.4 1.9 0 3.6-.7 4.9-2l2-2c1.3-1.3 2-3 2-4.9 0-3.8-3.1-6.9-6.9-6.9z"
       id="path313"
       style="fill:#008000" />
    <path
       d="M20 31c-.3 0-.5-.1-.7-.3-.4-.4-.4-1 0-1.4l10-10c.4-.4 1-.4 1.4 0s.4 1 0 1.4l-10 10c-.2.2-.4.3-.7.3z"
       id="path315"
       style="fill:#008000" />
  </svg>
  <view
     id="ei-location"
     viewBox="250 200 50 50" />
  <svg
     viewBox="0 0 50 50"
     width="50"
     height="50"
     x="250"
     y="200"
     id="svg318"
     version="1.1"
     style="fill:#008000">
    <path
       d="M25 42.5l-.8-.9C23.7 41.1 12 27.3 12 19c0-7.2 5.8-13 13-13s13 5.8 13 13c0 8.3-11.7 22.1-12.2 22.7l-.8.8zM25 8c-6.1 0-11 4.9-11 11 0 6.4 8.4 17.2 11 20.4 2.6-3.2 11-14 11-20.4 0-6.1-4.9-11-11-11z"
       id="path320"
       style="fill:#008000" />
    <path
       d="M25 24c-2.8 0-5-2.2-5-5s2.2-5 5-5 5 2.2 5 5-2.2 5-5 5zm0-8c-1.7 0-3 1.3-3 3s1.3 3 3 3 3-1.3 3-3-1.3-3-3-3z"
       id="path322"
       style="fill:#008000" />
  </svg>
  <view
     id="ei-lock"
     viewBox="0 250 50 50" />
  <svg
     viewBox="0 0 50 50"
     width="50"
     height="50"
     y="250"
     id="svg325"
     version="1.1"
     style="fill:#008000">
    <path
       d="M34 23h-2v-4c0-3.9-3.1-7-7-7s-7 3.1-7 7v4h-2v-4c0-5 4-9 9-9s9 4 9 9v4z"
       id="path327"
       style="fill:#008000" />
    <path
       d="M33 40H17c-1.7 0-3-1.3-3-3V25c0-1.7 1.3-3 3-3h16c1.7 0 3 1.3 3 3v12c0 1.7-1.3 3-3 3zM17 24c-.6 0-1 .4-1 1v12c0 .6.4 1 1 1h16c.6 0 1-.4 1-1V25c0-.6-.4-1-1-1H17z"
       id="path329"
       style="fill:#008000" />
    <circle
       cx="25"
       cy="28"
       r="2"
       id="circle331"
       style="fill:#008000" />
    <path
       d="M25.5 28h-1l-1 6h3z"
       id="path333"
       style="fill:#008000" />
  </svg>
  <view
     id="ei-minus"
     viewBox="50 250 50 50" />
  <svg
     viewBox="0 0 50 50"
     width="50"
     height="50"
     x="50"
     y="250"
     id="svg336"
     version="1.1"
     style="fill:#008000">
    <path
       d="M25 42c-9.4 0-17-7.6-17-17S15.6 8 25 8s17 7.6 17 17-7.6 17-17 17zm0-32c-8.3 0-15 6.7-15 15s6.7 15 15 15 15-6.7 15-15-6.7-15-15-15z"
       id="path338"
       style="fill:#008000" />
    <path
       d="M16 24h18v2H16z"
       id="path340"
       style="fill:#008000" />
  </svg>
  <view
     id="ei-navicon"
     viewBox="100 250 50 50" />
  <svg
     viewBox="0 0 50 50"
     width="50"
     height="50"
     x="100"
     y="250"
     id="svg343"
     version="1.1"
     style="fill:#008000">
    <path
       d="M10 12h30v4H10z"
       id="path345"
       style="fill:#008000" />
    <path
       d="M10 22h30v4H10z"
       id="path347"
       style="fill:#008000" />
    <path
       d="M10 32h30v4H10z"
       id="path349"
       style="fill:#008000" />
  </svg>
  <view
     id="ei-paperclip"
     viewBox="150 250 50 50" />
  <svg
     viewBox="0 0 50 50"
     width="50"
     height="50"
     x="150"
     y="250"
     id="svg352"
     version="1.1"
     style="fill:#008000">
    <path
       d="M13.8 39.6c-1.5 0-3.1-.6-4.2-1.8-2.3-2.3-2.3-6.1 0-8.5l17-17c3.1-3.1 8.2-3.1 11.3 0 3.1 3.1 3.1 8.2 0 11.3L25.1 36.4 23.7 35l12.7-12.7c2.3-2.3 2.3-6.1 0-8.5-2.3-2.3-6.1-2.3-8.5 0l-17 17c-.8.8-1.2 1.8-1.2 2.8 0 1.1.4 2.1 1.2 2.8 1.6 1.6 4.1 1.6 5.7 0l12.7-12.7c.8-.8.8-2 0-2.8-.8-.8-2-.8-2.8 0L18 29.3l-1.4-1.4 8.5-8.5c1.6-1.6 4.1-1.6 5.7 0 1.6 1.6 1.6 4.1 0 5.7L18 37.8c-1.1 1.2-2.7 1.8-4.2 1.8z"
       id="path354"
       style="fill:#008000" />
  </svg>
  <view
     id="ei-pencil"
     viewBox="0 0 50 50" />
  <svg
     viewBox="0 0 50 50"
     width="50"
     height="50"
     id="svg357"
     version="1.1"
     style="fill:#008000">
    <path
       d="M9.6 40.4l2.5-9.9L27 15.6l7.4 7.4-14.9 14.9-9.9 2.5zm4.3-8.9l-1.5 6.1 6.1-1.5L31.6 23 27 18.4 13.9 31.5z"
       id="path359"
       style="fill:#008000" />
    <path
       d="M17.8 37.3c-.6-2.5-2.6-4.5-5.1-5.1l.5-1.9c3.2.8 5.7 3.3 6.5 6.5l-1.9.5z"
       id="path361"
       style="fill:#008000" />
    <path
       d="M29.298 19.287l1.414 1.414-13.01 13.02-1.414-1.41z"
       id="path363"
       style="fill:#008000" />
    <path
       d="M11 39l2.9-.7c-.3-1.1-1.1-1.9-2.2-2.2L11 39z"
       id="path365"
       style="fill:#008000" />
    <path
       d="M35 22.4L27.6 15l3-3 .5.1c3.6.5 6.4 3.3 6.9 6.9l.1.5-3.1 2.9zM30.4 15l4.6 4.6.9-.9c-.5-2.3-2.3-4.1-4.6-4.6l-.9.9z"
       id="path367"
       style="fill:#008000" />
  </svg>
  <view
     id="ei-play"
     viewBox="250 250 50 50" />
  <svg
     viewBox="0 0 50 50"
     width="50"
     height="50"
     x="250"
     y="250"
     id="svg370"
     version="1.1"
     style="fill:#008000">
    <path
       d="M25 42c-9.4 0-17-7.6-17-17S15.6 8 25 8s17 7.6 17 17-7.6 17-17 17zm0-32c-8.3 0-15 6.7-15 15s6.7 15 15 15 15-6.7 15-15-6.7-15-15-15z"
       id="path372"
       style="fill:#008000" />
    <path
       d="M20 33.7V16.3L35 25l-15 8.7zm2-14v10.5l9-5.3-9-5.2z"
       id="path374"
       style="fill:#008000" />
  </svg>
  <view
     id="ei-plus"
     viewBox="300 0 50 50" />
  <svg
     viewBox="0 0 50 50"
     width="50"
     height="50"
     x="300"
     id="svg377"
     version="1.1"
     style="fill:#008000">
    <path
       d="M25 42c-9.4 0-17-7.6-17-17S15.6 8 25 8s17 7.6 17 17-7.6 17-17 17zm0-32c-8.3 0-15 6.7-15 15s6.7 15 15 15 15-6.7 15-15-6.7-15-15-15z"
       id="path379"
       style="fill:#008000" />
    <path
       d="M16 24h18v2H16z"
       id="path381"
       style="fill:#008000" />
    <path
       d="M24 16h2v18h-2z"
       id="path383"
       style="fill:#008000" />
  </svg>
  <view
     id="ei-pointer"
     viewBox="300 50 50 50" />
  <svg
     viewBox="0 0 50 50"
     width="50"
     height="50"
     x="300"
     y="50"
     id="svg386"
     version="1.1"
     style="fill:#008000">
    <path
       d="M33 38H21c-.6 0-1-.4-1-1 0-1.5-.7-2.4-1.8-3.8-.6-.7-1.3-1.6-2-2.7-1.9-3-3.6-6.6-4-7.9-.4-1.3-.1-2.2.3-2.7.4-.6 1.2-.9 2.1-.9 1.2 0 2.4 1 3.5 2.3V11c0-1.7 1.3-3 3-3s3 1.3 3 3v4.2c.3-.1.6-.2 1-.2 1.1 0 2 .6 2.5 1.4.4-.3.9-.4 1.4-.4 1.4 0 2.5.9 2.9 2.2.3-.1.7-.2 1.1-.2 1.7 0 3 1.3 3 3v3c0 2.6-.5 4.7-1 6.7s-1 3.9-1 6.3c0 .6-.4 1-1 1zm-11.1-2H32c.1-2.2.6-4 1-5.8.5-2 1-3.9 1-6.2v-3c0-.6-.4-1-1-1s-1 .4-1 1v1c0 .6-.4 1-1 1s-1-.4-1-1v-3c0-.6-.4-1-1-1s-1 .4-1 1v2c0 .6-.4 1-1 1s-1-.4-1-1v-3c0-.6-.4-1-1-1s-1 .4-1 1v2c0 .6-.4 1-1 1s-1-.4-1-1v-9c0-.6-.4-1-1-1s-1 .4-1 1v15c0 .6-.4 1-1 1s-1-.4-1-1v-.8c-.9-2.3-2.8-4.2-3.5-4.2-.2 0-.4 0-.5.1-.1.1-.1.4 0 .9.3 1.1 1.8 4.3 3.8 7.5.6 1 1.2 1.7 1.8 2.5 1.1 1.2 2.1 2.3 2.3 4z"
       id="path388"
       style="fill:#008000" />
  </svg>
  <view
     id="ei-question"
     viewBox="300 100 50 50" />
  <svg
     viewBox="0 0 50 50"
     width="50"
     height="50"
     x="300"
     y="100"
     id="svg391"
     version="1.1"
     style="fill:#008000">
    <path
       d="M25 42c-9.4 0-17-7.6-17-17S15.6 8 25 8s17 7.6 17 17-7.6 17-17 17zm0-32c-8.3 0-15 6.7-15 15s6.7 15 15 15 15-6.7 15-15-6.7-15-15-15z"
       id="path393"
       style="fill:#008000" />
    <path
       d="M19.8 19.6c.3-.8.6-1.4 1.2-1.9.5-.5 1.1-.9 1.9-1.2s1.6-.4 2.5-.4c.7 0 1.4.1 2 .3.6.2 1.2.5 1.7.9s.9.9 1.1 1.5c.3.6.4 1.3.4 2 0 1-.2 1.8-.6 2.5s-1 1.3-1.6 2l-1.3 1.3c-.3.3-.6.6-.7.9-.2.3-.3.7-.3 1.1-.1.4-.1.7-.1 1.5h-1.6c0-.8 0-1.1.1-1.7.1-.5.3-1 .5-1.5.2-.4.5-.8.9-1.2.4-.4.9-.8 1.4-1.4.5-.5.9-1 1.2-1.5s.5-1.2.5-1.8c0-.5-.1-1-.3-1.4-.2-.4-.5-.8-.8-1.1-.3-.3-.7-.5-1.2-.7-.5-.2-.9-.3-1.4-.3-.7 0-1.3.1-1.8.4-.5.2-1 .6-1.3 1-.3.4-.6.9-.8 1.5s-.4.9-.4 1.6h-1.6c0-.9.1-1.6.4-2.4zM26 32v2h-2v-2h2z"
       id="path395"
       style="fill:#008000" />
  </svg>
  <view
     id="ei-redo"
     viewBox="300 150 50 50" />
  <svg
     viewBox="0 0 50 50"
     width="50"
     height="50"
     x="300"
     y="150"
     id="svg398"
     version="1.1"
     style="fill:#008000">
    <path
       d="M25 38c-7.2 0-13-5.8-13-13s5.8-13 13-13c5.4 0 10.1 3.4 11.9 8.7l-1.9.7c-1.5-4.6-5.4-7.4-10-7.4-6.1 0-11 4.9-11 11s4.9 11 11 11c4.3 0 8.2-2.5 10-6.4l1.8.8C34.7 35 30.1 38 25 38z"
       id="path400"
       style="fill:#008000" />
    <path
       d="M38 22h-8v-2h6v-6h2z"
       id="path402"
       style="fill:#008000" />
  </svg>
  <view
     id="ei-refresh"
     viewBox="300 200 50 50" />
  <svg
     viewBox="0 0 50 50"
     width="50"
     height="50"
     x="300"
     y="200"
     id="svg405"
     version="1.1"
     style="fill:#008000">
    <path
       d="M25 38c-7.2 0-13-5.8-13-13 0-3.2 1.2-6.2 3.3-8.6l1.5 1.3C15 19.7 14 22.3 14 25c0 6.1 4.9 11 11 11 1.6 0 3.1-.3 4.6-1l.8 1.8c-1.7.8-3.5 1.2-5.4 1.2z"
       id="path407"
       style="fill:#008000" />
    <path
       d="M34.7 33.7l-1.5-1.3c1.8-2 2.8-4.6 2.8-7.3 0-6.1-4.9-11-11-11-1.6 0-3.1.3-4.6 1l-.8-1.8c1.7-.8 3.5-1.2 5.4-1.2 7.2 0 13 5.8 13 13 0 3.1-1.2 6.2-3.3 8.6z"
       id="path409"
       style="fill:#008000" />
    <path
       d="M18 24h-2v-6h-6v-2h8z"
       id="path411"
       style="fill:#008000" />
    <path
       d="M40 34h-8v-8h2v6h6z"
       id="path413"
       style="fill:#008000" />
  </svg>
  <view
     id="ei-retweet"
     viewBox="300 250 50 50" />
  <svg
     viewBox="0 0 50 50"
     width="50"
     height="50"
     x="300"
     y="250"
     id="svg416"
     version="1.1"
     style="fill:#008000">
    <path
       d="M38 35h-2V17c0-.6-.4-1-1-1H18v-2h17c1.7 0 3 1.3 3 3v18z"
       id="path418"
       style="fill:#008000" />
    <path
       d="M37 36.5l-6.8-7.8 1.6-1.4 5.2 6.2 5.2-6.2 1.6 1.4z"
       id="path420"
       style="fill:#008000" />
    <path
       d="M32 36H15c-1.7 0-3-1.3-3-3V15h2v18c0 .6.4 1 1 1h17v2z"
       id="path422"
       style="fill:#008000" />
    <path
       d="M18.2 22.7L13 16.5l-5.2 6.2-1.6-1.4 6.8-7.8 6.8 7.8z"
       id="path424"
       style="fill:#008000" />
  </svg>
  <view
     id="ei-sc-facebook"
     viewBox="0 300 50 50" />
  <svg
     viewBox="0 0 50 50"
     width="50"
     height="50"
     y="300"
     id="svg427"
     version="1.1"
     style="fill:#008000">
    <path
       d="M26 20v-3c0-1.3.3-2 2.4-2H31v-5h-4c-5 0-7 3.3-7 7v3h-4v5h4v15h6V25h4.4l.6-5h-5z"
       id="path429"
       style="fill:#008000" />
  </svg>
  <view
     id="ei-sc-github"
     viewBox="50 300 50 50" />
  <svg
     viewBox="0 0 50 50"
     width="50"
     height="50"
     x="50"
     y="300"
     id="svg432"
     version="1.1"
     style="fill:#008000">
    <path
       fill-rule="evenodd"
       clip-rule="evenodd"
       fill="#181616"
       d="M25 10c-8.3 0-15 6.7-15 15 0 6.6 4.3 12.2 10.3 14.2.8.1 1-.3 1-.7v-2.6c-4.2.9-5.1-2-5.1-2-.7-1.7-1.7-2.2-1.7-2.2-1.4-.9.1-.9.1-.9 1.5.1 2.3 1.5 2.3 1.5 1.3 2.3 3.5 1.6 4.4 1.2.1-1 .5-1.6 1-2-3.3-.4-6.8-1.7-6.8-7.4 0-1.6.6-3 1.5-4-.2-.4-.7-1.9.1-4 0 0 1.3-.4 4.1 1.5 1.2-.3 2.5-.5 3.8-.5 1.3 0 2.6.2 3.8.5 2.9-1.9 4.1-1.5 4.1-1.5.8 2.1.3 3.6.1 4 1 1 1.5 2.4 1.5 4 0 5.8-3.5 7-6.8 7.4.5.5 1 1.4 1 2.8v4.1c0 .4.3.9 1 .7 6-2 10.2-7.6 10.2-14.2C40 16.7 33.3 10 25 10z"
       id="path434"
       style="fill:#008000" />
  </svg>
  <view
     id="ei-sc-google-plus"
     viewBox="100 300 50 50" />
  <svg
     viewBox="0 0 50 50"
     width="50"
     height="50"
     x="100"
     y="300"
     id="svg437"
     version="1.1"
     style="fill:#008000">
    <g
       fill-rule="evenodd"
       clip-rule="evenodd"
       id="g439"
       style="fill:#008000">
      <path
         d="M18 23v4.8h7.9c-.3 2.1-2.4 6-7.9 6-4.8 0-8.7-4-8.7-8.8s3.9-8.8 8.7-8.8c2.7 0 4.5 1.2 5.6 2.2l3.8-3.7C24.9 12.4 21.8 11 18 11c-7.7 0-14 6.3-14 14s6.3 14 14 14c8.1 0 13.4-5.7 13.4-13.7 0-.9-.1-1.6-.2-2.3H18z"
         id="path441"
         style="fill:#008000" />
      <path
         d="M48 23h-4v-4h-4v4h-4v4h4v4h4v-4h4z"
         id="path443"
         style="fill:#008000" />
    </g>
  </svg>
  <view
     id="ei-sc-instagram"
     viewBox="150 300 50 50" />
  <svg
     viewBox="0 0 50 50"
     width="50"
     height="50"
     x="150"
     y="300"
     id="svg446"
     version="1.1"
     style="fill:#008000">
    <path
       fill-rule="evenodd"
       clip-rule="evenodd"
       fill="#231F20"
       d="M35 23h-2.3c.2.6.3 1.3.3 2 0 4.4-3.6 8-8 8s-8-3.6-8-8c0-.7.1-1.4.3-2H15v11c0 .6.4 1 1 1h18c.6 0 1-.4 1-1V23zm0-7c0-.6-.4-1-1-1h-3c-.6 0-1 .4-1 1v3c0 .6.4 1 1 1h3c.6 0 1-.4 1-1v-3zm-10 4c-2.8 0-5 2.2-5 5s2.2 5 5 5 5-2.2 5-5-2.2-5-5-5m10 18H15c-1.7 0-3-1.3-3-3V15c0-1.7 1.3-3 3-3h20c1.7 0 3 1.3 3 3v20c0 1.7-1.3 3-3 3"
       id="path448"
       style="fill:#008000" />
  </svg>
  <view
     id="ei-sc-linkedin"
     viewBox="200 300 50 50" />
  <svg
     viewBox="0 0 50 50"
     width="50"
     height="50"
     x="200"
     y="300"
     id="svg451"
     version="1.1"
     style="fill:#008000">
    <path
       fill="#231F20"
       d="M36.1 12H13.9c-1.1 0-1.9.8-1.9 1.9v22.2c0 1 .9 1.9 1.9 1.9h22.2c1.1 0 1.9-.8 1.9-1.9V13.9c0-1.1-.9-1.9-1.9-1.9zM20 34h-4V22h4v12zm-2-13.6c-1.3 0-2.4-1.1-2.4-2.4 0-1.3 1.1-2.4 2.4-2.4 1.3 0 2.4 1.1 2.4 2.4 0 1.3-1.1 2.4-2.4 2.4zM34 34h-4v-6c0-1.6-.4-3.2-2-3.2s-2 1.6-2 3.2v6h-4V22h4v1.4h.2c.5-1 1.8-1.8 3.3-1.8 3.7 0 4.5 2.4 4.5 5.4v7z"
       id="path453"
       style="fill:#008000" />
  </svg>
  <view
     id="ei-sc-odnoklassniki"
     viewBox="250 300 50 50" />
  <svg
     viewBox="0 0 50 50"
     width="50"
     height="50"
     x="250"
     y="300"
     id="svg456"
     version="1.1"
     style="fill:#008000">
    <path
       d="M25 26c-4.4 0-8-3.6-8-8s3.6-8 8-8 8 3.6 8 8-3.6 8-8 8zm0-12.2c-2.3 0-4.2 1.9-4.2 4.2s1.9 4.2 4.2 4.2 4.2-1.9 4.2-4.2-1.9-4.2-4.2-4.2z"
       id="path458"
       style="fill:#008000" />
    <path
       d="M33.6 26.8c-.7-.9-1.9-1-2.8-.4 0 0-2.2 1.6-5.8 1.6-3.6 0-5.8-1.6-5.8-1.6-.9-.7-2.1-.5-2.8.4-.7.9-.5 2.1.4 2.8.1.1 2.2 1.7 5.7 2.2l-5.3 5.4c-.8.8-.8 2.1 0 2.8.4.4.9.6 1.4.6.5 0 1-.2 1.4-.6l5-5.1 5 5.1c.4.4.9.6 1.4.6.5 0 1-.2 1.4-.6.8-.8.8-2 0-2.8l-5.3-5.4c3.5-.6 5.6-2.2 5.7-2.2.9-.7 1.1-2 .4-2.8z"
       id="path460"
       style="fill:#008000" />
  </svg>
  <view
     id="ei-sc-pinterest"
     viewBox="300 300 50 50" />
  <svg
     viewBox="0 0 50 50"
     width="50"
     height="50"
     x="300"
     y="300"
     id="svg463"
     version="1.1"
     style="fill:#008000">
    <path
       d="M25 10c-8.3 0-15 6.7-15 15 0 6.4 4 11.8 9.5 14-.1-1.2-.2-3 .1-4.3.3-1.2 1.8-7.5 1.8-7.5s-.4-.9-.4-2.2c0-2.1 1.2-3.6 2.7-3.6 1.3 0 1.9 1 1.9 2.1 0 1.3-.8 3.2-1.2 5-.4 1.5.7 2.7 2.2 2.7 2.7 0 4.7-2.8 4.7-6.9 0-3.6-2.6-6.1-6.3-6.1-4.3 0-6.8 3.2-6.8 6.5 0 1.3.5 2.7 1.1 3.4.1.1.1.3.1.4-.1.5-.4 1.5-.4 1.7-.1.3-.2.3-.5.2-1.9-.9-3-3.6-3-5.8 0-4.7 3.4-9.1 9.9-9.1 5.2 0 9.2 3.7 9.2 8.7 0 5.2-3.3 9.3-7.8 9.3-1.5 0-2.9-.8-3.4-1.7 0 0-.8 2.9-.9 3.6-.3 1.3-1.3 2.9-1.9 3.9 1.4.5 2.9.7 4.4.7 8.3 0 15-6.7 15-15s-6.7-15-15-15z"
       id="path465"
       style="fill:#008000" />
  </svg>
  <view
     id="ei-sc-skype"
     viewBox="350 0 50 50" />
  <svg
     viewBox="0 0 50 50"
     width="50"
     height="50"
     x="350"
     id="svg468"
     version="1.1"
     style="fill:#008000">
    <path
       d="M38 27.3c.1-.8.2-1.6.2-2.4 0-1.8-.3-3.5-1-5.1-.7-1.6-1.6-3-2.8-4.2-1.2-1.2-2.6-2.2-4.2-2.8-1.6-.7-3.4-1-5.1-1-.8 0-1.7.1-2.5.2-1.1-.6-2.4-.9-3.7-.9-2.1 0-4.1.8-5.5 2.3-1.5 1.5-2.3 3.4-2.3 5.5 0 1.3.3 2.6 1 3.8-.1.7-.2 1.5-.2 2.3 0 1.8.3 3.5 1 5.1.7 1.6 1.6 3 2.8 4.2 1.2 1.2 2.6 2.2 4.2 2.8 1.6.7 3.4 1 5.1 1 .8 0 1.6-.1 2.3-.2 1.2.7 2.5 1 3.9 1 2.1 0 4.1-.8 5.5-2.3 1.5-1.5 2.3-3.4 2.3-5.5 0-1.3-.3-2.6-1-3.8zM25.1 33c-4.7 0-6.8-2.3-6.8-4 0-.9.7-1.5 1.6-1.5 2 0 1.5 2.9 5.2 2.9 1.9 0 3-1 3-2.1 0-.6-.3-1.4-1.6-1.7l-4.2-1c-3.4-.8-4-2.7-4-4.4 0-3.6 3.3-4.9 6.5-4.9 2.9 0 6.3 1.6 6.3 3.7 0 .9-.8 1.4-1.7 1.4-1.7 0-1.4-2.4-4.9-2.4-1.7 0-2.7.8-2.7 1.9 0 1.1 1.4 1.5 2.5 1.7l3.1.7c3.4.8 4.2 2.7 4.2 4.6.1 2.9-2.1 5.1-6.5 5.1z"
       id="path470"
       style="fill:#008000" />
  </svg>
  <view
     id="ei-sc-soundcloud"
     viewBox="350 50 50 50" />
  <svg
     viewBox="0 0 50 50"
     width="50"
     height="50"
     x="350"
     y="50"
     id="svg473"
     version="1.1"
     style="fill:#008000">
    <path
       d="M40 24h-.2c-.9-4.6-5-8-9.8-8-3.1 0-5.9 1.4-7.7 3.7-.2.3-.3.6-.3 1.2l-.4 9.1.4 5.5c0 .3.3.5.5.5H40c3.3 0 6-2.7 6-6s-2.7-6-6-6z"
       id="path475"
       style="fill:#008000" />
    <path
       d="M18.9 20c-.3 0-.5.2-.5.5l-.8 9v1l.8 5c0 .3.3.5.6.5h.2c.3 0 .5-.2.6-.5l.8-5c0-.3.1-.7 0-1l-.8-9c0-.3-.3-.5-.5-.5h-.4z"
       id="path477"
       style="fill:#008000" />
    <path
       d="M14.9 21c-.3 0-.5.2-.5.5l-.8 8v1l.8 5c0 .3.3.5.6.5h.2c.3 0 .5-.2.6-.5l.8-5c0-.3.1-.7 0-1l-.8-8c0-.3-.3-.5-.5-.5h-.4z"
       id="path479"
       style="fill:#008000" />
    <path
       d="M11 24c-.3 0-.5.2-.6.5l-.8 5v1l.8 5c0 .3.3.5.6.5s.5-.2.6-.5l.8-5v-1l-.8-5c-.1-.3-.3-.5-.6-.5z"
       id="path481"
       style="fill:#008000" />
    <path
       d="M7 23c-.3 0-.5.2-.6.5l-.9 6v1l.8 5c.2.3.4.5.7.5.3 0 .5-.2.6-.5l.8-5c0-.3.1-.7 0-1l-.9-6c0-.3-.2-.5-.5-.5z"
       id="path483"
       style="fill:#008000" />
    <path
       d="M3.3 26c-.3 0-.5.2-.6.5l-.6 3c-.1.3-.1.7 0 1l.6 4c.1.3.3.5.6.5s.5-.2.6-.5l.6-4v-1l-.6-3c-.1-.3-.3-.5-.6-.5z"
       id="path485"
       style="fill:#008000" />
  </svg>
  <view
     id="ei-sc-tumblr"
     viewBox="350 100 50 50" />
  <svg
     viewBox="0 0 50 50"
     width="50"
     height="50"
     x="350"
     y="100"
     id="svg488"
     version="1.1"
     style="fill:#008000">
    <path
       d="M30.9 32.4c-.5.2-1.5.5-2.3.5-2.2.1-2.7-1.6-2.7-2.8v-8.7h5.6v-4.2H26V10h-4.1c-.1 0-.2.1-.2.2-.2 2.2-1.3 6-5.5 7.5v3.6H19v9.1c0 3.1 2.3 7.6 8.4 7.5 2.1 0 4.3-.9 4.8-1.6l-1.3-3.9z"
       id="path490"
       style="fill:#008000" />
  </svg>
  <view
     id="ei-sc-twitter"
     viewBox="350 150 50 50" />
  <svg
     viewBox="0 0 50 50"
     width="50"
     height="50"
     x="350"
     y="150"
     id="svg493"
     version="1.1"
     style="fill:#008000">
    <path
       d="M39.2 16.8c-1.1.5-2.2.8-3.5 1 1.2-.8 2.2-1.9 2.7-3.3-1.2.7-2.5 1.2-3.8 1.5-1.1-1.2-2.7-1.9-4.4-1.9-3.3 0-6.1 2.7-6.1 6.1 0 .5.1.9.2 1.4-5-.2-9.5-2.7-12.5-6.3-.5.7-.8 1.7-.8 2.8 0 2.1 1.1 4 2.7 5-1 0-1.9-.3-2.7-.8v.1c0 2.9 2.1 5.4 4.9 5.9-.5.1-1 .2-1.6.2-.4 0-.8 0-1.1-.1.8 2.4 3 4.2 5.7 4.2-2.1 1.6-4.7 2.6-7.5 2.6-.5 0-1 0-1.4-.1 2.4 1.9 5.6 2.9 9 2.9 11.1 0 17.2-9.2 17.2-17.2V20c1.2-.9 2.2-1.9 3-3.2z"
       id="path495"
       style="fill:#008000" />
  </svg>
  <view
     id="ei-sc-vimeo"
     viewBox="350 200 50 50" />
  <svg
     viewBox="0 0 50 50"
     width="50"
     height="50"
     x="350"
     y="200"
     id="svg498"
     version="1.1"
     style="fill:#008000">
    <path
       d="M38 19.6c-.1 2.7-2 6.4-5.6 11.1-3.8 4.9-7 7.4-9.6 7.4-1.6 0-3-1.5-4.1-4.5-.7-2.7-1.5-5.5-2.2-8.2-.8-3-1.7-4.5-2.7-4.5-.2 0-.9.4-2.2 1.3l-1.3-1.7c1.4-1.2 2.7-2.4 4-3.6 1.8-1.6 3.2-2.4 4.1-2.5 2.2-.2 3.5 1.3 4 4.4.5 3.4.9 5.5 1.1 6.4.6 2.8 1.3 4.2 2.1 4.2.6 0 1.5-.9 2.6-2.8 1.2-1.8 1.8-3.2 1.9-4.2.2-1.6-.5-2.4-1.9-2.4-.7 0-1.3.2-2 .5 1.4-4.5 4-6.6 7.8-6.5 2.8.1 4.2 1.9 4 5.6z"
       id="path500"
       style="fill:#008000" />
  </svg>
  <view
     id="ei-sc-vk"
     viewBox="350 250 50 50" />
  <svg
     viewBox="0 0 50 50"
     width="50"
     height="50"
     x="350"
     y="250"
     id="svg503"
     version="1.1"
     style="fill:#008000">
    <path
       fill-rule="evenodd"
       clip-rule="evenodd"
       d="M25.1 35.9h2s.6-.1.9-.4c.3-.3.3-.9.3-.9s0-2.6 1.2-3c1.2-.4 2.8 2.6 4.4 3.7 1.2.9 2.1.7 2.1.7l4.4-.1s2.3-.1 1.2-2c-.1-.1-.6-1.3-3.3-3.8-2.8-2.6-2.4-2.1.9-6.6 2-2.7 2.8-4.3 2.6-5.1-.2-.7-1.7-.5-1.7-.5h-5s-.4-.1-.6.1c-.3.2-.4.5-.4.5s-.8 2.1-1.8 3.9c-2.2 3.7-3.1 3.9-3.4 3.7-.8-.5-.6-2.2-.6-3.3 0-3.6.6-5.1-1.1-5.5-.5-.1-.9-.2-2.3-.2-1.8 0-3.3 0-4.1.4-.6.3-1 .9-.7.9.3 0 1.1.2 1.5.7.4.9.4 2.4.4 2.4s.3 4.3-.7 4.8c-.7.4-1.6-.4-3.6-3.8-1-1.7-1.8-3.7-1.8-3.7s-.1-.4-.4-.6c-.3-.2-.8-.3-.8-.3H10s-.7 0-1 .3c-.2.3 0 .8 0 .8s3.7 8.6 7.9 13c3.9 4.2 8.2 3.9 8.2 3.9z"
       id="path505"
       style="fill:#008000" />
  </svg>
  <view
     id="ei-sc-youtube"
     viewBox="350 300 50 50" />
  <svg
     viewBox="0 0 50 50"
     width="50"
     height="50"
     x="350"
     y="300"
     id="svg508"
     version="1.1"
     style="fill:#008000">
    <path
       d="M39.7 18.6s-.3-2.1-1.2-3c-1.1-1.2-2.4-1.2-3-1.3C31.3 14 25 14 25 14s-6.3 0-10.5.3c-.6.1-1.9.1-3 1.3-.9.9-1.2 3-1.2 3S10 21 10 23.4v2.2c0 2.4.3 4.9.3 4.9s.3 2.1 1.2 3c1.1 1.2 2.6 1.2 3.3 1.3 2.4.1 10.2.2 10.2.2s6.3 0 10.5-.3c.6-.1 1.9-.1 3-1.3.9-.9 1.2-3 1.2-3s.3-2.4.3-4.8v-2.2c0-2.4-.3-4.8-.3-4.8zm-17.8 9.8V20l8.1 4.2-8.1 4.2z"
       id="path510"
       style="fill:#008000" />
  </svg>
  <view
     id="ei-search"
     viewBox="0 350 50 50" />
  <svg
     viewBox="0 0 50 50"
     width="50"
     height="50"
     y="350"
     id="svg513"
     version="1.1"
     style="fill:#008000">
    <path
       d="M23 36c-7.2 0-13-5.8-13-13s5.8-13 13-13 13 5.8 13 13-5.8 13-13 13zm0-24c-6.1 0-11 4.9-11 11s4.9 11 11 11 11-4.9 11-11-4.9-11-11-11z"
       id="path515"
       style="fill:#008000" />
    <path
       d="M32.682 31.267l8.98 8.98-1.414 1.414-8.98-8.98z"
       id="path517"
       style="fill:#008000" />
  </svg>
  <view
     id="ei-share-apple"
     viewBox="50 350 50 50" />
  <svg
     viewBox="0 0 50 50"
     width="50"
     height="50"
     x="50"
     y="350"
     id="svg520"
     version="1.1"
     style="fill:#008000">
    <path
       d="M30.3 13.7L25 8.4l-5.3 5.3-1.4-1.4L25 5.6l6.7 6.7z"
       id="path522"
       style="fill:#008000" />
    <path
       d="M24 7h2v21h-2z"
       id="path524"
       style="fill:#008000" />
    <path
       d="M35 40H15c-1.7 0-3-1.3-3-3V19c0-1.7 1.3-3 3-3h7v2h-7c-.6 0-1 .4-1 1v18c0 .6.4 1 1 1h20c.6 0 1-.4 1-1V19c0-.6-.4-1-1-1h-7v-2h7c1.7 0 3 1.3 3 3v18c0 1.7-1.3 3-3 3z"
       id="path526"
       style="fill:#008000" />
  </svg>
  <view
     id="ei-share-google"
     viewBox="100 350 50 50" />
  <svg
     viewBox="0 0 50 50"
     width="50"
     height="50"
     x="100"
     y="350"
     id="svg529"
     version="1.1"
     style="fill:#008000">
    <path
       d="M15 30c-2.8 0-5-2.2-5-5s2.2-5 5-5 5 2.2 5 5-2.2 5-5 5zm0-8c-1.7 0-3 1.3-3 3s1.3 3 3 3 3-1.3 3-3-1.3-3-3-3z"
       id="path531"
       style="fill:#008000" />
    <path
       d="M35 20c-2.8 0-5-2.2-5-5s2.2-5 5-5 5 2.2 5 5-2.2 5-5 5zm0-8c-1.7 0-3 1.3-3 3s1.3 3 3 3 3-1.3 3-3-1.3-3-3-3z"
       id="path533"
       style="fill:#008000" />
    <path
       d="M35 40c-2.8 0-5-2.2-5-5s2.2-5 5-5 5 2.2 5 5-2.2 5-5 5zm0-8c-1.7 0-3 1.3-3 3s1.3 3 3 3 3-1.3 3-3-1.3-3-3-3z"
       id="path535"
       style="fill:#008000" />
    <path
       d="M19.007 25.885l12.88 6.44-.895 1.788-12.88-6.44z"
       id="path537"
       style="fill:#008000" />
    <path
       d="M30.993 15.885l.894 1.79-12.88 6.438-.894-1.79z"
       id="path539"
       style="fill:#008000" />
  </svg>
  <view
     id="ei-spinner"
     viewBox="150 350 50 50" />
  <svg
     viewBox="0 0 50 50"
     width="50"
     height="50"
     x="150"
     y="350"
     id="svg542"
     version="1.1"
     style="fill:#008000">
    <path
       d="M25 18c-.6 0-1-.4-1-1V9c0-.6.4-1 1-1s1 .4 1 1v8c0 .6-.4 1-1 1z"
       id="path544"
       style="fill:#008000" />
    <path
       opacity=".3"
       d="M25 42c-.6 0-1-.4-1-1v-8c0-.6.4-1 1-1s1 .4 1 1v8c0 .6-.4 1-1 1z"
       id="path546"
       style="fill:#008000" />
    <path
       opacity=".3"
       d="M29 19c-.2 0-.3 0-.5-.1-.4-.3-.6-.8-.3-1.3l4-6.9c.3-.4.8-.6 1.3-.3.4.3.6.8.3 1.3l-4 6.9c-.2.2-.5.4-.8.4z"
       id="path548"
       style="fill:#008000" />
    <path
       opacity=".3"
       d="M17 39.8c-.2 0-.3 0-.5-.1-.4-.3-.6-.8-.3-1.3l4-6.9c.3-.4.8-.6 1.3-.3.4.3.6.8.3 1.3l-4 6.9c-.2.2-.5.4-.8.4z"
       id="path550"
       style="fill:#008000" />
    <path
       opacity=".93"
       d="M21 19c-.3 0-.6-.2-.8-.5l-4-6.9c-.3-.4-.1-1 .3-1.3.4-.3 1-.1 1.3.3l4 6.9c.3.4.1 1-.3 1.3-.2.2-.3.2-.5.2z"
       id="path552"
       style="fill:#008000" />
    <path
       opacity=".3"
       d="M33 39.8c-.3 0-.6-.2-.8-.5l-4-6.9c-.3-.4-.1-1 .3-1.3.4-.3 1-.1 1.3.3l4 6.9c.3.4.1 1-.3 1.3-.2.1-.3.2-.5.2z"
       id="path554"
       style="fill:#008000" />
    <path
       opacity=".65"
       d="M17 26H9c-.6 0-1-.4-1-1s.4-1 1-1h8c.6 0 1 .4 1 1s-.4 1-1 1z"
       id="path556"
       style="fill:#008000" />
    <path
       opacity=".3"
       d="M41 26h-8c-.6 0-1-.4-1-1s.4-1 1-1h8c.6 0 1 .4 1 1s-.4 1-1 1z"
       id="path558"
       style="fill:#008000" />
    <path
       opacity=".86"
       d="M18.1 21.9c-.2 0-.3 0-.5-.1l-6.9-4c-.4-.3-.6-.8-.3-1.3.3-.4.8-.6 1.3-.3l6.9 4c.4.3.6.8.3 1.3-.2.3-.5.4-.8.4z"
       id="path560"
       style="fill:#008000" />
    <path
       opacity=".3"
       d="M38.9 33.9c-.2 0-.3 0-.5-.1l-6.9-4c-.4-.3-.6-.8-.3-1.3.3-.4.8-.6 1.3-.3l6.9 4c.4.3.6.8.3 1.3-.2.3-.5.4-.8.4z"
       id="path562"
       style="fill:#008000" />
    <path
       opacity=".44"
       d="M11.1 33.9c-.3 0-.6-.2-.8-.5-.3-.4-.1-1 .3-1.3l6.9-4c.4-.3 1-.1 1.3.3.3.4.1 1-.3 1.3l-6.9 4c-.1.2-.3.2-.5.2z"
       id="path564"
       style="fill:#008000" />
    <path
       opacity=".3"
       d="M31.9 21.9c-.3 0-.6-.2-.8-.5-.3-.4-.1-1 .3-1.3l6.9-4c.4-.3 1-.1 1.3.3.3.4.1 1-.3 1.3l-6.9 4c-.2.2-.3.2-.5.2z"
       id="path566"
       style="fill:#008000" />
  </svg>
  <view
     id="ei-spinner-2"
     viewBox="200 350 50 50" />
  <svg
     viewBox="0 0 50 50"
     width="50"
     height="50"
     x="200"
     y="350"
     id="svg569"
     version="1.1"
     style="fill:#008000">
    <circle
       cx="25"
       cy="10"
       r="2"
       id="circle571"
       style="fill:#008000" />
    <circle
       opacity=".3"
       cx="25"
       cy="40"
       r="2"
       id="circle573"
       style="fill:#008000" />
    <circle
       opacity=".3"
       cx="32.5"
       cy="12"
       r="2"
       id="circle575"
       style="fill:#008000" />
    <circle
       opacity=".3"
       cx="17.5"
       cy="38"
       r="2"
       id="circle577"
       style="fill:#008000" />
    <circle
       opacity=".93"
       cx="17.5"
       cy="12"
       r="2"
       id="circle579"
       style="fill:#008000" />
    <circle
       opacity=".3"
       cx="32.5"
       cy="38"
       r="2"
       id="circle581"
       style="fill:#008000" />
    <circle
       opacity=".65"
       cx="10"
       cy="25"
       r="2"
       id="circle583"
       style="fill:#008000" />
    <circle
       opacity=".3"
       cx="40"
       cy="25"
       r="2"
       id="circle585"
       style="fill:#008000" />
    <circle
       opacity=".86"
       cx="12"
       cy="17.5"
       r="2"
       id="circle587"
       style="fill:#008000" />
    <circle
       opacity=".3"
       cx="38"
       cy="32.5"
       r="2"
       id="circle589"
       style="fill:#008000" />
    <circle
       opacity=".44"
       cx="12"
       cy="32.5"
       r="2"
       id="circle591"
       style="fill:#008000" />
    <circle
       opacity=".3"
       cx="38"
       cy="17.5"
       r="2"
       id="circle593"
       style="fill:#008000" />
  </svg>
  <view
     id="ei-spinner-3"
     viewBox="250 350 50 50" />
  <svg
     viewBox="0 0 50 50"
     width="50"
     height="50"
     x="250"
     y="350"
     id="svg596"
     version="1.1"
     style="fill:#008000">
    <path
       d="M41.9 23.9c-.3-6.1-4-11.8-9.5-14.4-6-2.7-13.3-1.6-18.3 2.6-4.8 4-7 10.5-5.6 16.6 1.3 6 6 10.9 11.9 12.5 7.1 2 13.6-1.4 17.6-7.2-3.6 4.8-9.1 8-15.2 6.9-6.1-1.1-11.1-5.7-12.5-11.7-1.5-6.4 1.5-13.1 7.2-16.4 5.9-3.4 14.2-2.1 18.1 3.7 1 1.4 1.7 3.1 2 4.8.3 1.4.2 2.9.4 4.3.2 1.3 1.3 3 2.8 2.1 1.3-.8 1.2-2.5 1.1-3.8 0-.4.1.7 0 0z"
       id="path598"
       style="fill:#008000" />
  </svg>
  <view
     id="ei-star"
     viewBox="300 350 50 50" />
  <svg
     viewBox="0 0 50 50"
     width="50"
     height="50"
     x="300"
     y="350"
     id="svg601"
     version="1.1"
     style="fill:#008000">
    <path
       d="M15.2 40.6c-.2 0-.4-.1-.6-.2-.4-.3-.5-.7-.4-1.1l3.9-12-10.2-7.5c-.4-.3-.5-.7-.4-1.1s.5-.7 1-.7h12.7L25 5.9c.1-.4.5-.7 1-.7s.8.3 1 .7L30.9 18h12.7c.4 0 .8.2 1 .6s0 .9-.4 1.1L34 27.1l3.9 12c.1.4 0 .9-.4 1.1s-.8.3-1.2 0L26 33l-10.2 7.4c-.2.1-.4.2-.6.2zM26 30.7c.2 0 .4.1.6.2l8.3 6.1-3.2-9.8c-.1-.4 0-.9.4-1.1l8.3-6.1H30.1c-.4 0-.8-.3-1-.7L26 9.5l-3.2 9.8c-.1.4-.5.7-1 .7H11.5l8.3 6.1c.4.3.5.7.4 1.1L17.1 37l8.3-6.1c.2-.1.4-.2.6-.2z"
       id="path603"
       style="fill:#008000" />
  </svg>
  <view
     id="ei-tag"
     viewBox="350 350 50 50" />
  <svg
     viewBox="0 0 50 50"
     width="50"
     height="50"
     x="350"
     y="350"
     id="svg606"
     version="1.1"
     style="fill:#008000">
    <path
       d="M22 40.1c-.9 0-1.7-.3-2.3-.9l-8.9-8.9c-1.2-1.2-1.2-3.3 0-4.5l11.9-11.9c1-1 3-1.8 4.5-1.8h7.6c1.8 0 3.2 1.4 3.2 3.2v7.6c0 1.5-.8 3.4-1.8 4.5L24.3 39.2c-.6.6-1.4.9-2.3.9zM27.2 14c-1 0-2.4.6-3 1.3L12.3 27.2c-.5.5-.5 1.2 0 1.7l8.9 8.9c.5.4 1.2.4 1.7 0l11.9-11.9c.7-.7 1.3-2.1 1.3-3v-7.6c0-.7-.5-1.2-1.2-1.2h-7.7z"
       id="path608"
       style="fill:#008000" />
    <path
       d="M30 24c-2.2 0-4-1.8-4-4s1.8-4 4-4 4 1.8 4 4-1.8 4-4 4zm0-6c-1.1 0-2 .9-2 2s.9 2 2 2 2-.9 2-2-.9-2-2-2z"
       id="path610"
       style="fill:#008000" />
  </svg>
  <view
     id="ei-trash"
     viewBox="400 0 50 50" />
  <svg
     viewBox="0 0 50 50"
     width="50"
     height="50"
     x="400"
     id="svg613"
     version="1.1"
     style="fill:#008000">
    <path
       d="M20 18h2v16h-2z"
       id="path615"
       style="fill:#008000" />
    <path
       d="M24 18h2v16h-2z"
       id="path617"
       style="fill:#008000" />
    <path
       d="M28 18h2v16h-2z"
       id="path619"
       style="fill:#008000" />
    <path
       d="M12 12h26v2H12z"
       id="path621"
       style="fill:#008000" />
    <path
       d="M30 12h-2v-1c0-.6-.4-1-1-1h-4c-.6 0-1 .4-1 1v1h-2v-1c0-1.7 1.3-3 3-3h4c1.7 0 3 1.3 3 3v1z"
       id="path623"
       style="fill:#008000" />
    <path
       d="M31 40H19c-1.6 0-3-1.3-3.2-2.9l-1.8-24 2-.2 1.8 24c0 .6.6 1.1 1.2 1.1h12c.6 0 1.1-.5 1.2-1.1l1.8-24 2 .2-1.8 24C34 38.7 32.6 40 31 40z"
       id="path625"
       style="fill:#008000" />
  </svg>
  <view
     id="ei-trophy"
     viewBox="400 50 50 50" />
  <svg
     viewBox="0 0 50 50"
     width="50"
     height="50"
     x="400"
     y="50"
     id="svg628"
     version="1.1"
     style="fill:#008000">
    <path
       d="M28.6 29.4c3-2.3 7.4-5.7 7.4-18.4v-1H14v1c0 12.7 4.5 16.1 7.4 18.4 1.7 1.3 2.6 2 2.6 3.6v3c-1.6.2-3.2.8-3.8 2H18c-1.1 0-2 .9-2 2h18c0-1.1-.9-2-2-2h-2.2c-.6-1.2-2.1-1.8-3.8-2v-3c0-1.6.8-2.3 2.6-3.6zm-3.6.5c-.6-.8-1.5-1.5-2.3-2.1-2.7-2.1-6.4-4.9-6.6-15.8h18c-.2 10.8-3.9 13.7-6.6 15.8-1 .7-1.9 1.3-2.5 2.1z"
       id="path630"
       style="fill:#008000" />
    <path
       d="M18.8 27C18.7 27 8 24.7 8 13v-1h7v2h-5c.6 9.2 9.1 11 9.2 11l-.4 2z"
       id="path632"
       style="fill:#008000" />
    <path
       d="M31.2 27l-.4-2c.4-.1 8.6-1.9 9.2-11h-5v-2h7v1c0 11.7-10.7 14-10.8 14z"
       id="path634"
       style="fill:#008000" />
  </svg>
  <view
     id="ei-undo"
     viewBox="400 100 50 50" />
  <svg
     viewBox="0 0 50 50"
     width="50"
     height="50"
     x="400"
     y="100"
     id="svg637"
     version="1.1"
     style="fill:#008000">
    <path
       d="M25 38c-5.1 0-9.7-3-11.8-7.6l1.8-.8c1.8 3.9 5.7 6.4 10 6.4 6.1 0 11-4.9 11-11s-4.9-11-11-11c-4.6 0-8.5 2.8-10.1 7.3l-1.9-.7c1.9-5.2 6.6-8.6 12-8.6 7.2 0 13 5.8 13 13s-5.8 13-13 13z"
       id="path639"
       style="fill:#008000" />
    <path
       d="M20 22h-8v-8h2v6h6z"
       id="path641"
       style="fill:#008000" />
  </svg>
  <view
     id="ei-unlock"
     viewBox="400 150 50 50" />
  <svg
     viewBox="0 0 50 50"
     width="50"
     height="50"
     x="400"
     y="150"
     id="svg644"
     version="1.1"
     style="fill:#008000">
    <path
       d="M18 23h-2v-4c0-5 4-9 9-9 4.5 0 8.4 3.4 8.9 7.9l-2 .2c-.4-3.5-3.4-6.1-6.9-6.1-3.9 0-7 3.1-7 7v4z"
       id="path646"
       style="fill:#008000" />
    <path
       d="M33 40H17c-1.7 0-3-1.3-3-3V25c0-1.7 1.3-3 3-3h16c1.7 0 3 1.3 3 3v12c0 1.7-1.3 3-3 3zM17 24c-.6 0-1 .4-1 1v12c0 .6.4 1 1 1h16c.6 0 1-.4 1-1V25c0-.6-.4-1-1-1H17z"
       id="path648"
       style="fill:#008000" />
    <circle
       cx="25"
       cy="28"
       r="2"
       id="circle650"
       style="fill:#008000"
       d="m 27,28 c 0,1.104569 -0.895431,2 -2,2 -1.104569,0 -2,-0.895431 -2,-2 0,-1.104569 0.895431,-2 2,-2 1.104569,0 2,0.895431 2,2 z" />
    <path
       d="M25.5 28h-1l-1 6h3z"
       id="path652"
       style="fill:#008000" />
  </svg>
  <view
     id="ei-user"
     viewBox="400 200 50 50" />
  <svg
     viewBox="0 0 50 50"
     width="50"
     height="50"
     x="400"
     y="200"
     id="svg655"
     version="1.1"
     style="fill:#008000">
    <path
       d="M25.1 42c-9.4 0-17-7.6-17-17s7.6-17 17-17 17 7.6 17 17-7.7 17-17 17zm0-32c-8.3 0-15 6.7-15 15s6.7 15 15 15 15-6.7 15-15-6.8-15-15-15z"
       id="path657"
       style="fill:#008000" />
    <path
       d="M15.3 37.3l-1.8-.8c.5-1.2 2.1-1.9 3.8-2.7 1.7-.8 3.8-1.7 3.8-2.8v-1.5c-.6-.5-1.6-1.6-1.8-3.2-.5-.5-1.3-1.4-1.3-2.6 0-.7.3-1.3.5-1.7-.2-.8-.4-2.3-.4-3.5 0-3.9 2.7-6.5 7-6.5 1.2 0 2.7.3 3.5 1.2 1.9.4 3.5 2.6 3.5 5.3 0 1.7-.3 3.1-.5 3.8.2.3.4.8.4 1.4 0 1.3-.7 2.2-1.3 2.6-.2 1.6-1.1 2.6-1.7 3.1V31c0 .9 1.8 1.6 3.4 2.2 1.9.7 3.9 1.5 4.6 3.1l-1.9.7c-.3-.8-1.9-1.4-3.4-1.9-2.2-.8-4.7-1.7-4.7-4v-2.6l.5-.3s1.2-.8 1.2-2.4v-.7l.6-.3c.1 0 .6-.3.6-1.1 0-.2-.2-.5-.3-.6l-.4-.4.2-.5s.5-1.6.5-3.6c0-1.9-1.1-3.3-2-3.3h-.6l-.3-.5c0-.4-.7-.8-1.9-.8-3.1 0-5 1.7-5 4.5 0 1.3.5 3.5.5 3.5l.1.5-.4.5c-.1 0-.3.3-.3.7 0 .5.6 1.1.9 1.3l.4.3v.5c0 1.5 1.3 2.3 1.3 2.4l.5.3v2.6c0 2.4-2.6 3.6-5 4.6-1.1.4-2.6 1.1-2.8 1.6z"
       id="path659"
       style="fill:#008000" />
  </svg>
  <rect
     style="fill:#789a21;fill-opacity:0.68949771"
     id="rect3695"
     width="438.98306"
     height="115.25424"
     x="8.474576"
     y="132.20338"
     ry="10" />
  <text
     xml:space="preserve"
     style="font-size:40px;font-style:normal;font-weight:normal;line-height:125%;letter-spacing:0px;word-spacing:0px;fill:none;stroke:#00006d;stroke-width:4.5;stroke-linecap:round;stroke-linejoin:round;stroke-miterlimit:4;stroke-opacity:1;stroke-dasharray:4.5, 4.5;stroke-dashoffset:18.89999933;font-family:Sans"
     x="228.63994"
     y="206.38324"
     id="text3642"
     sodipodi:linespacing="125%"><tspan
       sodipodi:role="line"
       id="tspan3644"
       x="228.63994"
       y="206.38324"
       style="font-size:60px;font-weight:normal;text-align:center;text-anchor:middle;fill:none;stroke:#00006d;stroke-width:4.5;stroke-linecap:round;stroke-linejoin:round;stroke-miterlimit:4;stroke-opacity:1;stroke-dasharray:4.5, 4.5;stroke-dashoffset:18.89999933;-inkscape-font-specification:Sans">SVG </tspan></text>
</svg>
