<?xml version="1.0" encoding="UTF-8" standalone="no"?>
<svg xmlns:rdf="http://www.w3.org/1999/02/22-rdf-syntax-ns#" xmlns="http://www.w3.org/2000/svg" version="1.1" xmlns:cc="http://creativecommons.org/ns#" xmlns:xlink="http://www.w3.org/1999/xlink" viewBox="0 0 450 400" xmlns:dc="http://purl.org/dc/elements/1.1/">
 <metadata>
  <rdf:RDF>
   <cc:Work rdf:about="">
    <dc:format>image/svg+xml</dc:format>
    <dc:type rdf:resource="http://purl.org/dc/dcmitype/StillImage"/>
    <dc:title/>
   </cc:Work>
  </rdf:RDF>
 </metadata>
 <defs></defs>
 <view viewBox="50 0 50 50"/>
 <svg viewBox="0 0 50 50" width="50" version="1.1" x="50" height="50" fill="#008000">
  <path d="M42,20h-2v-5c0-0.6-0.4-1-1-1h-28c-0.6,0-1,0.4-1,1v5h-2v-5c0-1.7,1.3-3,3-3h28c1.7,0,3,1.3,3,3v5z"/>
  <path d="M37,40h-24c-1.7,0-3-1.3-3-3v-17h2v17c0,0.6,0.4,1,1,1h24c0.6,0,1-0.4,1-1v-17h2v17c0,1.7-1.3,3-3,3z"/>
  <path d="M29,26h-8c-0.6,0-1-0.4-1-1s0.4-1,1-1h8c0.6,0,1,0.4,1,1s-0.4,1-1,1z"/>
  <path d="M8,18h34v2h-34z"/>
 </svg>
 <view viewBox="200 250 50 50"/>
 <svg viewBox="0 0 50 50" width="50" version="1.1" y="250" x="200" height="50" fill="#008000">
  <path d="M25,42c-9.4,0-17-7.6-17-17s7.6-17,17-17,17,7.6,17,17-7.6,17-17,17zm0-32c-8.3,0-15,6.7-15,15s6.7,15,15,15,15-6.7,15-15-6.7-15-15-15z"/>
  <path d="M25,34.4l-9.7-9.7,1.4-1.4,8.3,8.3,8.3-8.3,1.4,1.4z"/>
  <path d="M24,16h2v17h-2z"/>
 </svg>
 <view viewBox="0 50 50 50"/>
 <svg viewBox="0 0 50 50" width="50" version="1.1" y="50" height="50" fill="#008000">
  <path d="M25,42c-9.4,0-17-7.6-17-17s7.6-17,17-17,17,7.6,17,17-7.6,17-17,17zm0-32c-8.3,0-15,6.7-15,15s6.7,15,15,15,15-6.7,15-15-6.7-15-15-15z"/>
  <path d="M25.3,34.7l-9.7-9.7,9.7-9.7,1.4,1.4-8.3,8.3,8.3,8.3z"/>
  <path d="M17,24h17v2h-17z"/>
 </svg>
 <view viewBox="50 50 50 50"/>
 <svg viewBox="0 0 50 50" width="50" version="1.1" y="50" x="50" height="50" fill="#008000">
  <path d="M25,42c-9.4,0-17-7.6-17-17s7.6-17,17-17,17,7.6,17,17-7.6,17-17,17zm0-32c-8.3,0-15,6.7-15,15s6.7,15,15,15,15-6.7,15-15-6.7-15-15-15z"/>
  <path d="M24.7,34.7l-1.4-1.4,8.3-8.3-8.3-8.3,1.4-1.4,9.7,9.7z"/>
  <path d="M16,24h17v2h-17z"/>
 </svg>
 <view viewBox="100 0 50 50"/>
 <svg viewBox="0 0 50 50" width="50" version="1.1" x="100" height="50" fill="#008000">
  <path d="M25,42c-9.4,0-17-7.6-17-17s7.6-17,17-17,17,7.6,17,17-7.6,17-17,17zm0-32c-8.3,0-15,6.7-15,15s6.7,15,15,15,15-6.7,15-15-6.7-15-15-15z"/>
  <path d="M33.3,26.7l-8.3-8.3-8.3,8.3-1.4-1.4,9.7-9.7,9.7,9.7z"/>
  <path d="M24,17h2v17h-2z"/>
 </svg>
 <view viewBox="100 50 50 50"/>
 <svg viewBox="0 0 50 50" width="50" version="1.1" y="50" x="100" height="50" fill="#008000">
  <path d="M42,36c-6.5,0-7.4-6.3-8.2-11.9-0.9-6.2-1.7-12.1-8.8-12.1s-7.9,5.9-8.8,12.1c-0.8,5.6-1.7,11.9-8.2,11.9v-2c4.6,0,5.3-3.9,6.2-10.1s2-13.9,10.8-13.9,9.9,7.7,10.8,13.9c0.9,6.2,1.6,10.1,6.2,10.1v2z"/>
  <path d="M25,40c-2.8,0-5-2.2-5-5h2c0,1.7,1.3,3,3,3s3-1.3,3-3h2c0,2.8-2.2,5-5,5z"/>
  <path d="M8,34h34v2h-34z"/>
  <path d="M27,10c0,1.1-0.9,1.5-2,1.5s-2-0.4-2-1.5,0.9-2,2-2,2,0.9,2,2z"/>
 </svg>
 <view viewBox="0 100 50 50"/>
 <svg viewBox="0 0 50 50" width="50" version="1.1" y="100" height="50" fill="#008000">
  <path d="M37,38h-24c-1.7,0-3-1.3-3-3v-22c0-1.7,1.1-3,2.5-3h1.5v2h-1.5c-0.2,0-0.5,0.4-0.5,1v22c0,0.6,0.4,1,1,1h24c0.6,0,1-0.4,1-1v-22c0-0.6-0.3-1-0.5-1h-1.5v-2h1.5c1.4,0,2.5,1.3,2.5,3v22c0,1.7-1.3,3-3,3z"/>
  <path d="M17,14c-0.6,0-1-0.4-1-1v-4c0-0.6,0.4-1,1-1s1,0.4,1,1v4c0,0.6-0.4,1-1,1z"/>
  <path d="M33,14c-0.6,0-1-0.4-1-1v-4c0-0.6,0.4-1,1-1s1,0.4,1,1v4c0,0.6-0.4,1-1,1z"/>
  <path d="M20,10h10v2h-10z"/>
  <path d="M12,16h26v2h-26z"/>
  <path d="M34,20h2v2h-2z"/>
  <path d="M30,20h2v2h-2z"/>
  <path d="M26,20h2v2h-2z"/>
  <path d="M22,20h2v2h-2z"/>
  <path d="M18,20h2v2h-2z"/>
  <path d="M34,24h2v2h-2z"/>
  <path d="M30,24h2v2h-2z"/>
  <path d="M26,24h2v2h-2z"/>
  <path d="M22,24h2v2h-2z"/>
  <path d="M18,24h2v2h-2z"/>
  <path d="M14,24h2v2h-2z"/>
  <path d="M34,28h2v2h-2z"/>
  <path d="M30,28h2v2h-2z"/>
  <path d="M26,28h2v2h-2z"/>
  <path d="M22,28h2v2h-2z"/>
  <path d="M18,28h2v2h-2z"/>
  <path d="M14,28h2v2h-2z"/>
  <path d="M30,32h2v2h-2z"/>
  <path d="M26,32h2v2h-2z"/>
  <path d="M22,32h2v2h-2z"/>
  <path d="M18,32h2v2h-2z"/>
  <path d="M14,32h2v2h-2z"/>
 </svg>
 <view viewBox="50 100 50 50"/>
 <svg viewBox="0 0 50 50" width="50" version="1.1" y="100" x="50" height="50" fill="#008000">
  <path d="M39,38h-28c-1.7,0-3-1.3-3-3v-18c0-1.7,1.3-3,3-3h6c0.2,0,0.5-0.2,0.6-0.3l1.1-2.2c0.4-0.8,1.4-1.4,2.3-1.4h8c0.9,0,1.9,0.6,2.3,1.4l1.1,2.2c0.1,0.2,0.4,0.3,0.6,0.3h6c1.7,0,3,1.3,3,3v18c0,1.7-1.3,3-3,3zm-28-22c-0.6,0-1,0.4-1,1v18c0,0.6,0.4,1,1,1h28c0.6,0,1-0.4,1-1v-18c0-0.6-0.4-1-1-1h-6c-0.9,0-1.9-0.6-2.3-1.4l-1.1-2.2c-0.1-0.2-0.4-0.4-0.6-0.4h-8c-0.2,0-0.5,0.2-0.6,0.3l-1.1,2.2c-0.4,0.9-1.4,1.5-2.3,1.5h-6z"/>
  <path d="M25,34c-5,0-9-4-9-9s4-9,9-9,9,4,9,9-4,9-9,9zm0-16c-3.9,0-7,3.1-7,7s3.1,7,7,7,7-3.1,7-7-3.1-7-7-7z"/>
  <circle d="m 36,18 c 0,0.552285 -0.447715,1 -1,1 -0.552285,0 -1,-0.447715 -1,-1 0,-0.552285 0.447715,-1 1,-1 0.552285,0 1,0.447715 1,1 z" cy="18" cx="35" r="1"/>
  <path d="M12,12h4v1h-4z"/>
  <path d="M25,21v-1c-2.8,0-5,2.2-5,5h1c0-2.2,1.8-4,4-4z"/>
 </svg>
 <view viewBox="100 100 50 50"/>
 <svg viewBox="0 0 50 50" width="50" version="1.1" y="100" x="100" height="50" fill="#008000">
  <path d="M35,34h-22c-0.3,0-0.6-0.2-0.8-0.4s-0.2-0.6-0.1-0.9l1.9-4.8-1.9-17.9h-6.1v-2h7c0.5,0,0.9,0.4,1,0.9l2,19c0,0.2,0,0.3-0.1,0.5l-1.4,3.6h21.5l-1,2z"/>
  <path d="M15.2,29l-0.4-2,23.2-4.8v-8.2h-24v-2h25c0.6,0,1,0.4,1,1v10c0,0.5-0.3,0.9-0.8,1l-24,5z"/>
  <path d="M36,40c-2.2,0-4-1.8-4-4s1.8-4,4-4,4,1.8,4,4-1.8,4-4,4zm0-6c-1.1,0-2,0.9-2,2s0.9,2,2,2,2-0.9,2-2-0.9-2-2-2z"/>
  <path d="M12,40c-2.2,0-4-1.8-4-4s1.8-4,4-4,4,1.8,4,4-1.8,4-4,4zm0-6c-1.1,0-2,0.9-2,2s0.9,2,2,2,2-0.9,2-2-0.9-2-2-2z"/>
 </svg>
 <view viewBox="150 0 50 50"/>
 <svg viewBox="0 0 50 50" width="50" version="1.1" x="150" height="50" fill="#008000">
  <path d="M18,36h-2v-10h-4v10h-2v-12h8z"/>
  <path d="M28,36h-2v-16h-4v16h-2v-18h8z"/>
  <path d="M38,36h-2v-22h-4v22h-2v-24h8z"/>
  <path d="M8,36h32v2h-32z"/>
 </svg>
 <view viewBox="150 50 50 50"/>
 <svg viewBox="0 0 50 50" width="50" version="1.1" y="50" x="150" height="50" fill="#008000">
  <path d="M25,42c-9.4,0-17-7.6-17-17s7.6-17,17-17,17,7.6,17,17-7.6,17-17,17zm0-32c-8.3,0-15,6.7-15,15s6.7,15,15,15,15-6.7,15-15-6.7-15-15-15z"/>
  <path d="M23,32.4l-8.7-8.7,1.4-1.4,7.3,7.3,11.3-11.3,1.4,1.4z"/>
 </svg>
 <view viewBox="150 100 50 50"/>
 <svg viewBox="0 0 50 50" width="50" version="1.1" y="100" x="150" height="50" fill="#008000">
  <path fill="#008000" d="M25,32.4l-9.7-9.7,1.4-1.4,8.3,8.3,8.3-8.3,1.4,1.4z"/>
 </svg>
 <view viewBox="0 150 50 50"/>
 <svg viewBox="0 0 50 50" width="50" version="1.1" y="150" height="50" fill="#008000">
  <path fill="#008000" d="M27.3,34.7l-9.7-9.7,9.7-9.7,1.4,1.4-8.3,8.3,8.3,8.3z"/>
 </svg>
 <view viewBox="50 150 50 50"/>
 <svg viewBox="0 0 50 50" width="50" version="1.1" y="150" x="50" height="50" fill="#008000">
  <path fill="#008000" d="M22.7,34.7l-1.4-1.4,8.3-8.3-8.3-8.3,1.4-1.4,9.7,9.7z"/>
 </svg>
 <view viewBox="100 150 50 50"/>
 <svg viewBox="0 0 50 50" width="50" version="1.1" y="150" x="100" height="50" fill="#008000">
  <path fill="#008000" d="M33.3,28.7l-8.3-8.3-8.3,8.3-1.4-1.4,9.7-9.7,9.7,9.7z"/>
 </svg>
 <view viewBox="150 150 50 50"/>
 <svg viewBox="0 0 50 50" width="50" version="1.1" y="150" x="150" height="50" fill="#008000">
  <path d="M25,42c-9.4,0-17-7.6-17-17s7.6-17,17-17,17,7.6,17,17-7.6,17-17,17zm0-32c-8.3,0-15,6.7-15,15s6.7,15,15,15,15-6.7,15-15-6.7-15-15-15z"/>
  <path d="M30.3,33.7l-6.3-6.3v-11.4h2v10.6l5.7,5.7z"/>
 </svg>
 <view viewBox="200 0 50 50"/>
 <svg viewBox="0 0 50 50" width="50" version="1.1" x="200" height="50" fill="#008000">
  <path d="M37.304,11.282l1.414,1.414-26.022,26.02-1.414-1.413z"/>
  <path d="M12.696,11.282l26.022,26.02-1.414,1.415-26.022-26.02z"/>
 </svg>
 <view viewBox="200 50 50 50"/>
 <svg viewBox="0 0 50 50" width="50" version="1.1" y="50" x="200" height="50" fill="#008000">
  <path d="M25,42c-9.4,0-17-7.6-17-17s7.6-17,17-17,17,7.6,17,17-7.6,17-17,17zm0-32c-8.3,0-15,6.7-15,15s6.7,15,15,15,15-6.7,15-15-6.7-15-15-15z"/>
  <path d="M32.283,16.302l1.414,1.415-15.98,15.98-1.414-1.414z"/>
  <path d="M17.717,16.302l15.98,15.98-1.414,1.415-15.98-15.98z"/>
 </svg>
 <view viewBox="200 100 50 50"/>
 <svg viewBox="0 0 50 50" width="50" version="1.1" y="100" x="200" height="50" fill="#008000">
  <path fill="#008000" d="M15,42h-2l1.2-1.6c0.8-1.1,1.3-2.5,1.6-4.2-5-2.3-7.8-6.6-7.8-12.2,0-8.6,6.5-14,17-14s17,5.4,17,14c0,8.8-6.4,14-17,14h-0.7c-1.6,1.9-4.4,4-9.3,4zm10-30c-9.4,0-15,4.5-15,12,0,6.4,3.9,9.4,7.2,10.7l0.7,0.3-0.1,0.8c-0.2,1.6-0.5,3-1.1,4.2,3.3-0.4,5.2-2.1,6.3-3.5l0.3-0.4h1.7c13.5,0,15-8.4,15-12,0-7.6-5.6-12.1-15-12.1z"/>
 </svg>
 <view viewBox="200 150 50 50"/>
 <svg viewBox="0 0 50 50" width="50" version="1.1" y="150" x="200" height="50" fill="#008000">
  <path d="M39,38h-28c-1.7,0-3-1.3-3-3v-20c0-1.7,1.3-3,3-3h28c1.7,0,3,1.3,3,3v20c0,1.7-1.3,3-3,3zm-28-24c-0.6,0-1,0.4-1,1v20c0,0.6,0.4,1,1,1h28c0.6,0,1-0.4,1-1v-20c0-0.6-0.4-1-1-1h-28z"/>
  <path d="M9,16h32v6h-32z"/>
  <path d="M12,26h1v2h-1z"/>
  <path d="M14,26h1v2h-1z"/>
  <path d="M16,26h1v2h-1z"/>
  <path d="M19,26h1v2h-1z"/>
  <path d="M21,26h1v2h-1z"/>
  <path d="M23,26h1v2h-1z"/>
  <path d="M26,26h1v2h-1z"/>
  <path d="M28,26h1v2h-1z"/>
  <path d="M30,26h1v2h-1z"/>
  <path d="M33,26h1v2h-1z"/>
  <path d="M35,26h1v2h-1z"/>
  <path d="M37,26h1v2h-1z"/>
 </svg>
 <view viewBox="0 200 50 50"/>
 <svg viewBox="0 0 50 50" width="50" version="1.1" y="200" height="50" fill="#008000">
  <path opacity=".9" d="M31.796,24.244l9.97,9.97-1.415,1.414-9.97-9.97z"/>
  <path opacity=".9" d="M18.278,24.287l1.414,1.414-9.9,9.9-1.414-1.41z"/>
  <path d="M25,29.9c-1.5,0-3.1-0.6-4.2-1.8l-12.5-12.4,1.4-1.4,12.5,12.5c1.6,1.6,4.1,1.6,5.7,0l12.5-12.5,1.4,1.4-12.6,12.5c-1.1,1.1-2.7,1.7-4.2,1.7z"/>
  <path d="M39,38h-28c-1.7,0-3-1.3-3-3v-20c0-1.7,1.3-3,3-3h28c1.7,0,3,1.3,3,3v20c0,1.7-1.3,3-3,3zm-28-24c-0.6,0-1,0.4-1,1v20c0,0.6,0.4,1,1,1h28c0.6,0,1-0.4,1-1v-20c0-0.6-0.4-1-1-1h-28z"/>
 </svg>
 <view viewBox="50 200 50 50"/>
 <svg viewBox="0 0 50 50" width="50" version="1.1" y="200" x="50" height="50" fill="#008000">
  <path d="M25,42c-9.4,0-17-7.6-17-17s7.6-17,17-17,17,7.6,17,17-7.6,17-17,17zm0-32c-8.3,0-15,6.7-15,15s6.7,15,15,15,15-6.7,15-15-6.7-15-15-15z"/>
  <path d="M24,32h2v2h-2z"/>
  <path d="M25.6,30h-1.2l-0.4-8v-6h2v6z"/>
 </svg>
 <view viewBox="100 200 50 50"/>
 <svg viewBox="0 0 50 50" width="50" version="1.1" y="200" x="100" height="50" fill="#008000">
  <path d="M38.288,10.297l1.414,1.415-14.99,14.99-1.414-1.414z"/>
  <path d="M40,20h-2v-8h-8v-2h10z"/>
  <path d="M35,38h-20c-1.7,0-3-1.3-3-3v-20c0-1.7,1.3-3,3-3h11v2h-11c-0.6,0-1,0.4-1,1v20c0,0.6,0.4,1,1,1h20c0.6,0,1-0.4,1-1v-11h2v11c0,1.7-1.3,3-3,3z"/>
 </svg>
 <view viewBox="150 200 50 50"/>
 <svg viewBox="0 0 50 50" width="50" version="1.1" y="200" x="150" height="50" fill="#008000">
  <path d="M25,36c-11.5,0-16.7-10.1-16.9-10.6-0.1-0.3-0.1-0.6,0-0.9,0.2-0.4,5.4-10.5,16.9-10.5s16.7,10.1,16.9,10.6c0.1,0.3,0.1,0.6,0,0.9-0.2,0.4-5.4,10.5-16.9,10.5zm-14.9-11c1.1,1.9,5.9,9,14.9,9s13.7-7.1,14.9-9c-1.1-1.9-5.9-9-14.9-9s-13.7,7.1-14.9,9z"/>
  <path d="M25,34c-5,0-9-4-9-9s4-9,9-9,9,4,9,9-4,9-9,9zm0-16c-3.9,0-7,3.1-7,7s3.1,7,7,7,7-3.1,7-7-3.1-7-7-7z"/>
  <path d="M25,30c-2.8,0-5-2.2-5-5,0-0.6,0.4-1,1-1s1,0.4,1,1c0,1.7,1.3,3,3,3s3-1.3,3-3-1.3-3-3-3c-0.6,0-1-0.4-1-1s0.4-1,1-1c2.8,0,5,2.2,5,5s-2.2,5-5,5z"/>
 </svg>
 <view viewBox="200 200 50 50"/>
 <svg viewBox="0 0 50 50" width="50" version="1.1" y="200" x="200" height="50" fill="#008000">
  <path d="M25,34c-5,0-9-4-9-9s4-9,9-9,9,4,9,9-4,9-9,9zm0-16c-3.9,0-7,3.1-7,7s3.1,7,7,7,7-3.1,7-7-3.1-7-7-7z"/>
  <path d="M27.7,44h-5.4l-1.5-4.6c-1-0.3-2-0.7-2.9-1.2l-4.4,2.2-3.8-3.8,2.2-4.4c-0.5-0.9-0.9-1.9-1.2-2.9l-4.7-1.6v-5.4l4.6-1.5c0.3-1,0.7-2,1.2-2.9l-2.2-4.4,3.8-3.8,4.4,2.2c0.9-0.5,1.9-0.9,2.9-1.2l1.6-4.7h5.4l1.5,4.6c1,0.3,2,0.7,2.9,1.2l4.4-2.2,3.8,3.8-2.2,4.4c0.5,0.9,0.9,1.9,1.2,2.9l4.6,1.5v5.4l-4.6,1.5c-0.3,1-0.7,2-1.2,2.9l2.2,4.4-3.8,3.8-4.4-2.2c-0.9,0.5-1.9,0.9-2.9,1.2l-1.5,4.8zm-4-2h2.6l1.4-4.3,0.5-0.1c1.2-0.3,2.3-0.8,3.4-1.4l0.5-0.3,4,2,1.8-1.8-2-4,0.3-0.5c0.6-1,1.1-2.2,1.4-3.4l0.1-0.5,4.3-1.4v-2.6l-4.3-1.4-0.1-0.5c-0.3-1.2-0.8-2.3-1.4-3.4l-0.3-0.5,2-4-1.8-1.8-4,2-0.5-0.3c-1.1-0.6-2.2-1.1-3.4-1.4l-0.5-0.1-1.4-4.3h-2.6l-1.4,4.3-0.5,0.1c-1.2,0.3-2.3,0.8-3.4,1.4l-0.5,0.3-4-2-1.8,1.8,2,4-0.3,0.5c-0.6,1-1.1,2.2-1.4,3.4l-0.1,0.5-4.3,1.4v2.6l4.3,1.4,0.1,0.5c0.3,1.2,0.8,2.3,1.4,3.4l0.3,0.5-2,4,1.8,1.8,4-2,0.5,0.3c1.1,0.6,2.2,1.1,3.4,1.4l0.5,0.1,1.4,4.3z"/>
 </svg>
 <view viewBox="250 0 50 50"/>
 <svg viewBox="0 0 50 50" width="50" version="1.1" x="250" height="50" fill="#008000">
  <path fill="#008000" d="M25,39.7l-0.6-0.5c-12.9-10.5-16.4-14.2-16.4-20.2,0-5,4-9,9-9,4.1,0,6.4,2.3,8,4.1,1.6-1.8,3.9-4.1,8-4.1,5,0,9,4,9,9,0,6-3.5,9.7-16.4,20.2l-0.6,0.5zm-8-27.7c-3.9,0-7,3.1-7,7,0,5.1,3.2,8.5,15,18.1,11.8-9.6,15-13,15-18.1,0-3.9-3.1-7-7-7-3.5,0-5.4,2.1-6.9,3.8l-1.1,1.3-1.1-1.3c-1.5-1.7-3.4-3.8-6.9-3.8z"/>
 </svg>
 <view viewBox="250 50 50 50"/>
 <svg viewBox="0 0 50 50" width="50" version="1.1" y="50" x="250" height="50" fill="#008000">
  <path d="M39,38h-28c-1.7,0-3-1.3-3-3v-20c0-1.7,1.3-3,3-3h28c1.7,0,3,1.3,3,3v20c0,1.7-1.3,3-3,3zm-28-24c-0.6,0-1,0.4-1,1v20c0,0.6,0.4,1,1,1h28c0.6,0,1-0.4,1-1v-20c0-0.6-0.4-1-1-1h-28z"/>
  <path d="M30,24c-2.2,0-4-1.8-4-4s1.8-4,4-4,4,1.8,4,4-1.8,4-4,4zm0-6c-1.1,0-2,0.9-2,2s0.9,2,2,2,2-0.9,2-2-0.9-2-2-2z"/>
  <path d="M35.3,37.7l-16.3-15.3-9.3,8.6-1.4-1.4,10.7-10,17.7,16.7z"/>
  <path d="M40.4,32.7l-5.4-4.4-4.5,3.7-1.3-1.6,5.8-4.7,6.6,5.4z"/>
 </svg>
 <view viewBox="250 100 50 50"/>
 <svg viewBox="0 0 50 50" width="50" version="1.1" y="100" x="250" height="50" fill="#008000">
  <path d="M40,23.2c0-2.1-1.7-3.2-4-3.2h-6.7c0.5-1.8,0.7-3.5,0.7-5,0-5.8-1.6-7-3-7-0.9,0-1.6,0.1-2.5,0.6-0.3,0.2-0.4,0.4-0.5,0.7l-1,5.4c-1.1,2.8-3.8,5.3-6,7v14.3c0.8,0,1.6,0.4,2.6,0.9,1.1,0.5,2.2,1.1,3.4,1.1h9.5c2,0,3.5-1.6,3.5-3,0-0.3,0-0.5-0.1-0.7,1.2-0.5,2.1-1.5,2.1-2.8,0-0.6-0.1-1.1-0.3-1.6,0.8-0.5,1.5-1.4,1.5-2.4,0-0.6-0.3-1.2-0.6-1.7,0.8-0.6,1.4-1.6,1.4-2.6zm-2.1,0c0,1.3-1.3,1.4-1.5,2-0.2,0.7,0.8,0.9,0.8,2.1s-1.5,1.2-1.7,1.9c-0.2,0.8,0.5,1,0.5,2.2v0.2c-0.2,1-1.7,1.1-2,1.5-0.3,0.5,0,0.7,0,1.8,0,0.6-0.7,1-1.5,1h-9.5c-0.8,0-1.6-0.4-2.6-0.9-0.8-0.4-1.6-0.8-2.4-1v-10.5c2.5-1.9,5.7-4.7,6.9-8.2v-0.2l0.9-5c0.4-0.1,0.7-0.1,1.2-0.1,0.2,0,1,1.2,1,5,0,1.5-0.3,3.1-0.8,5h-0.2c-0.6,0-1,0.4-1,1s0.4,1,1,1h9c1,0,1.9,0.5,1.9,1.2z"/>
  <path d="M16,38h-6c-1.1,0-2-0.9-2-2v-14c0-1.1,0.9-2,2-2h6c1.1,0,2,0.9,2,2v14c0,1.1-0.9,2-2,2zm-6-16v14h6v-14h-6z"/>
 </svg>
 <view viewBox="250 150 50 50"/>
 <svg viewBox="0 0 50 50" width="50" version="1.1" y="150" x="250" height="50" fill="#008000">
  <path d="M24,30.2c0,0.2,0.1,0.5,0.1,0.8,0,1.4-0.5,2.6-1.5,3.6l-2,2c-1,1-2.2,1.5-3.6,1.5-2.8,0-5.1-2.3-5.1-5.1,0-1.4,0.5-2.6,1.5-3.6l2-2c1-1,2.2-1.5,3.6-1.5,0.3,0,0.5,0,0.8,0.1l1.5-1.5c-0.7-0.3-1.5-0.4-2.3-0.4-1.9,0-3.6,0.7-4.9,2l-2,2c-1.3,1.3-2,3-2,4.9,0,3.8,3.1,6.9,6.9,6.9,1.9,0,3.6-0.7,4.9-2l2-2c1.3-1.3,2-3,2-4.9,0-0.8-0.1-1.6-0.4-2.3l-1.5,1.5z"/>
  <path d="M33,10.1c-1.9,0-3.6,0.7-4.9,2l-2,2c-1.3,1.3-2,3-2,4.9,0,0.8,0.1,1.6,0.4,2.3l1.5-1.5c0-0.2-0.1-0.5-0.1-0.8,0-1.4,0.5-2.6,1.5-3.6l2-2c1-1,2.2-1.5,3.6-1.5,2.8,0,5.1,2.3,5.1,5.1,0,1.4-0.5,2.6-1.5,3.6l-2,2c-1,1-2.2,1.5-3.6,1.5-0.3,0-0.5,0-0.8-0.1l-1.5,1.5c0.7,0.3,1.5,0.4,2.3,0.4,1.9,0,3.6-0.7,4.9-2l2-2c1.3-1.3,2-3,2-4.9,0-3.8-3.1-6.9-6.9-6.9z"/>
  <path d="M20,31c-0.3,0-0.5-0.1-0.7-0.3-0.4-0.4-0.4-1,0-1.4l10-10c0.4-0.4,1-0.4,1.4,0s0.4,1,0,1.4l-10,10c-0.2,0.2-0.4,0.3-0.7,0.3z"/>
 </svg>
 <view viewBox="250 200 50 50"/>
 <svg viewBox="0 0 50 50" width="50" version="1.1" y="200" x="250" height="50" fill="#008000">
  <path d="M25,42.5l-0.8-0.9c-0.5-0.5-12.2-14.3-12.2-22.6,0-7.2,5.8-13,13-13s13,5.8,13,13c0,8.3-11.7,22.1-12.2,22.7l-0.8,0.8zm0-34.5c-6.1,0-11,4.9-11,11,0,6.4,8.4,17.2,11,20.4,2.6-3.2,11-14,11-20.4,0-6.1-4.9-11-11-11z"/>
  <path d="M25,24c-2.8,0-5-2.2-5-5s2.2-5,5-5,5,2.2,5,5-2.2,5-5,5zm0-8c-1.7,0-3,1.3-3,3s1.3,3,3,3,3-1.3,3-3-1.3-3-3-3z"/>
 </svg>
 <view viewBox="0 250 50 50"/>
 <svg viewBox="0 0 50 50" width="50" version="1.1" y="250" height="50" fill="#008000">
  <path d="M34,23h-2v-4c0-3.9-3.1-7-7-7s-7,3.1-7,7v4h-2v-4c0-5,4-9,9-9s9,4,9,9v4z"/>
  <path d="M33,40h-16c-1.7,0-3-1.3-3-3v-12c0-1.7,1.3-3,3-3h16c1.7,0,3,1.3,3,3v12c0,1.7-1.3,3-3,3zm-16-16c-0.6,0-1,0.4-1,1v12c0,0.6,0.4,1,1,1h16c0.6,0,1-0.4,1-1v-12c0-0.6-0.4-1-1-1h-16z"/>
  <circle cy="28" cx="25" r="2"/>
  <path d="M25.5,28h-1l-1,6h3z"/>
 </svg>
 <view viewBox="50 250 50 50"/>
 <svg viewBox="0 0 50 50" width="50" version="1.1" y="250" x="50" height="50" fill="#008000">
  <path d="M25,42c-9.4,0-17-7.6-17-17s7.6-17,17-17,17,7.6,17,17-7.6,17-17,17zm0-32c-8.3,0-15,6.7-15,15s6.7,15,15,15,15-6.7,15-15-6.7-15-15-15z"/>
  <path d="M16,24h18v2h-18z"/>
 </svg>
 <view viewBox="100 250 50 50"/>
 <svg viewBox="0 0 50 50" width="50" version="1.1" y="250" x="100" height="50" fill="#008000">
  <path d="M10,12h30v4h-30z"/>
  <path d="M10,22h30v4h-30z"/>
  <path d="M10,32h30v4h-30z"/>
 </svg>
 <view viewBox="150 250 50 50"/>
 <svg viewBox="0 0 50 50" width="50" version="1.1" y="250" x="150" height="50" fill="#008000">
  <path fill="#008000" d="M13.8,39.6c-1.5,0-3.1-0.6-4.2-1.8-2.3-2.3-2.3-6.1,0-8.5l17-17c3.1-3.1,8.2-3.1,11.3,0s3.1,8.2,0,11.3l-12.8,12.8-1.4-1.4,12.7-12.7c2.3-2.3,2.3-6.1,0-8.5-2.3-2.3-6.1-2.3-8.5,0l-17,17c-0.8,0.8-1.2,1.8-1.2,2.8,0,1.1,0.4,2.1,1.2,2.8,1.6,1.6,4.1,1.6,5.7,0l12.7-12.7c0.8-0.8,0.8-2,0-2.8s-2-0.8-2.8,0l-8.5,8.4-1.4-1.4,8.5-8.5c1.6-1.6,4.1-1.6,5.7,0s1.6,4.1,0,5.7l-12.8,12.7c-1.1,1.2-2.7,1.8-4.2,1.8z"/>
 </svg>
 <view viewBox="0 0 50 50"/>
 <svg viewBox="0 0 50 50" width="50" version="1.1" height="50" fill="#008000">
  <path d="M9.6,40.4l2.5-9.9,14.9-14.9,7.4,7.4-14.9,14.9-9.9,2.5zm4.3-8.9l-1.5,6.1,6.1-1.5,13.1-13.1-4.6-4.6-13.1,13.1z"/>
  <path d="M17.8,37.3c-0.6-2.5-2.6-4.5-5.1-5.1l0.5-1.9c3.2,0.8,5.7,3.3,6.5,6.5l-1.9,0.5z"/>
  <path d="M29.298,19.287l1.414,1.414-13.01,13.02-1.414-1.41z"/>
  <path d="M11,39l2.9-0.7c-0.3-1.1-1.1-1.9-2.2-2.2l-0.7,2.9z"/>
  <path d="M35,22.4l-7.4-7.4,3-3,0.5,0.1c3.6,0.5,6.4,3.3,6.9,6.9l0.1,0.5-3.1,2.9zm-4.6-7.4l4.6,4.6,0.9-0.9c-0.5-2.3-2.3-4.1-4.6-4.6l-0.9,0.9z"/>
 </svg>
 <view viewBox="250 250 50 50"/>
 <svg viewBox="0 0 50 50" width="50" version="1.1" y="250" x="250" height="50" fill="#008000">
  <path d="M25,42c-9.4,0-17-7.6-17-17s7.6-17,17-17,17,7.6,17,17-7.6,17-17,17zm0-32c-8.3,0-15,6.7-15,15s6.7,15,15,15,15-6.7,15-15-6.7-15-15-15z"/>
  <path d="M20,33.7v-17.4l15,8.7-15,8.7zm2-14v10.5l9-5.3-9-5.2z"/>
 </svg>
 <view viewBox="300 0 50 50"/>
 <svg viewBox="0 0 50 50" width="50" version="1.1" x="300" height="50" fill="#008000">
  <path d="M25,42c-9.4,0-17-7.6-17-17s7.6-17,17-17,17,7.6,17,17-7.6,17-17,17zm0-32c-8.3,0-15,6.7-15,15s6.7,15,15,15,15-6.7,15-15-6.7-15-15-15z"/>
  <path d="M16,24h18v2h-18z"/>
  <path d="M24,16h2v18h-2z"/>
 </svg>
 <view viewBox="300 50 50 50"/>
 <svg viewBox="0 0 50 50" width="50" version="1.1" y="50" x="300" height="50" fill="#008000">
  <path fill="#008000" d="M33,38h-12c-0.6,0-1-0.4-1-1,0-1.5-0.7-2.4-1.8-3.8-0.6-0.7-1.3-1.6-2-2.7-1.9-3-3.6-6.6-4-7.9s-0.1-2.2,0.3-2.7c0.4-0.6,1.2-0.9,2.1-0.9,1.2,0,2.4,1,3.5,2.3v-10.3c0-1.7,1.3-3,3-3s3,1.3,3,3v4.2c0.3-0.1,0.6-0.2,1-0.2,1.1,0,2,0.6,2.5,1.4,0.4-0.3,0.9-0.4,1.4-0.4,1.4,0,2.5,0.9,2.9,2.2,0.3-0.1,0.7-0.2,1.1-0.2,1.7,0,3,1.3,3,3v3c0,2.6-0.5,4.7-1,6.7s-1,3.9-1,6.3c0,0.6-0.4,1-1,1zm-11.1-2h10.1c0.1-2.2,0.6-4,1-5.8,0.5-2,1-3.9,1-6.2v-3c0-0.6-0.4-1-1-1s-1,0.4-1,1v1c0,0.6-0.4,1-1,1s-1-0.4-1-1v-3c0-0.6-0.4-1-1-1s-1,0.4-1,1v2c0,0.6-0.4,1-1,1s-1-0.4-1-1v-3c0-0.6-0.4-1-1-1s-1,0.4-1,1v2c0,0.6-0.4,1-1,1s-1-0.4-1-1v-9c0-0.6-0.4-1-1-1s-1,0.4-1,1v15c0,0.6-0.4,1-1,1s-1-0.4-1-1v-0.8c-0.9-2.3-2.8-4.2-3.5-4.2-0.2,0-0.4,0-0.5,0.1s-0.1,0.4,0,0.9c0.3,1.1,1.8,4.3,3.8,7.5,0.6,1,1.2,1.7,1.8,2.5,1.1,1.2,2.1,2.3,2.3,4z"/>
 </svg>
 <view viewBox="300 100 50 50"/>
 <svg viewBox="0 0 50 50" width="50" version="1.1" y="100" x="300" height="50" fill="#008000">
  <path d="M25,42c-9.4,0-17-7.6-17-17s7.6-17,17-17,17,7.6,17,17-7.6,17-17,17zm0-32c-8.3,0-15,6.7-15,15s6.7,15,15,15,15-6.7,15-15-6.7-15-15-15z"/>
  <path d="M19.8,19.6c0.3-0.8,0.6-1.4,1.2-1.9,0.5-0.5,1.1-0.9,1.9-1.2s1.6-0.4,2.5-0.4c0.7,0,1.4,0.1,2,0.3s1.2,0.5,1.7,0.9,0.9,0.9,1.1,1.5c0.3,0.6,0.4,1.3,0.4,2,0,1-0.2,1.8-0.6,2.5s-1,1.3-1.6,2l-1.3,1.3c-0.3,0.3-0.6,0.6-0.7,0.9-0.2,0.3-0.3,0.7-0.3,1.1-0.1,0.4-0.1,0.7-0.1,1.5h-1.6c0-0.8,0-1.1,0.1-1.7,0.1-0.5,0.3-1,0.5-1.5,0.2-0.4,0.5-0.8,0.9-1.2s0.9-0.8,1.4-1.4c0.5-0.5,0.9-1,1.2-1.5s0.5-1.2,0.5-1.8c0-0.5-0.1-1-0.3-1.4s-0.5-0.8-0.8-1.1-0.7-0.5-1.2-0.7-0.9-0.3-1.4-0.3c-0.7,0-1.3,0.1-1.8,0.4-0.5,0.2-1,0.6-1.3,1s-0.6,0.9-0.8,1.5-0.4,0.9-0.4,1.6h-1.6c0-0.9,0.1-1.6,0.4-2.4zm6.2,12.4v2h-2v-2h2z"/>
 </svg>
 <view viewBox="300 150 50 50"/>
 <svg viewBox="0 0 50 50" width="50" version="1.1" y="150" x="300" height="50" fill="#008000">
  <path d="M25,38c-7.2,0-13-5.8-13-13s5.8-13,13-13c5.4,0,10.1,3.4,11.9,8.7l-1.9,0.7c-1.5-4.6-5.4-7.4-10-7.4-6.1,0-11,4.9-11,11s4.9,11,11,11c4.3,0,8.2-2.5,10-6.4l1.8,0.8c-2.1,4.6-6.7,7.6-11.8,7.6z"/>
  <path d="M38,22h-8v-2h6v-6h2z"/>
 </svg>
 <view viewBox="300 200 50 50"/>
 <svg viewBox="0 0 50 50" width="50" version="1.1" y="200" x="300" height="50" fill="#008000">
  <path d="M25,38c-7.2,0-13-5.8-13-13,0-3.2,1.2-6.2,3.3-8.6l1.5,1.3c-1.8,2-2.8,4.6-2.8,7.3,0,6.1,4.9,11,11,11,1.6,0,3.1-0.3,4.6-1l0.8,1.8c-1.7,0.8-3.5,1.2-5.4,1.2z"/>
  <path d="M34.7,33.7l-1.5-1.3c1.8-2,2.8-4.6,2.8-7.3,0-6.1-4.9-11-11-11-1.6,0-3.1,0.3-4.6,1l-0.8-1.8c1.7-0.8,3.5-1.2,5.4-1.2,7.2,0,13,5.8,13,13,0,3.1-1.2,6.2-3.3,8.6z"/>
  <path d="M18,24h-2v-6h-6v-2h8z"/>
  <path d="M40,34h-8v-8h2v6h6z"/>
 </svg>
 <view viewBox="300 250 50 50"/>
 <svg viewBox="0 0 50 50" width="50" version="1.1" y="250" x="300" height="50" fill="#008000">
  <path d="M38,35h-2v-18c0-0.6-0.4-1-1-1h-17v-2h17c1.7,0,3,1.3,3,3v18z"/>
  <path d="M37,36.5l-6.8-7.8,1.6-1.4,5.2,6.2,5.2-6.2,1.6,1.4z"/>
  <path d="M32,36h-17c-1.7,0-3-1.3-3-3v-18h2v18c0,0.6,0.4,1,1,1h17v2z"/>
  <path d="M18.2,22.7l-5.2-6.2-5.2,6.2-1.6-1.4,6.8-7.8,6.8,7.8z"/>
 </svg>
 <view viewBox="0 300 50 50"/>
 <svg viewBox="0 0 50 50" width="50" version="1.1" y="300" height="50" fill="#008000">
  <path fill="#008000" d="M26,20v-3c0-1.3,0.3-2,2.4-2h2.6v-5h-4c-5,0-7,3.3-7,7v3h-4v5h4v15h6v-15h4.4l0.6-5h-5z"/>
 </svg>
 <view viewBox="50 300 50 50"/>
 <svg viewBox="0 0 50 50" width="50" version="1.1" y="300" x="50" height="50" fill="#008000">
  <path d="M25,10c-8.3,0-15,6.7-15,15,0,6.6,4.3,12.2,10.3,14.2,0.8,0.1,1-0.3,1-0.7v-2.6c-4.2,0.9-5.1-2-5.1-2-0.7-1.7-1.7-2.2-1.7-2.2-1.4-0.9,0.1-0.9,0.1-0.9,1.5,0.1,2.3,1.5,2.3,1.5,1.3,2.3,3.5,1.6,4.4,1.2,0.1-1,0.5-1.6,1-2-3.3-0.4-6.8-1.7-6.8-7.4,0-1.6,0.6-3,1.5-4-0.2-0.4-0.7-1.9,0.1-4,0,0,1.3-0.4,4.1,1.5,1.2-0.3,2.5-0.5,3.8-0.5s2.6,0.2,3.8,0.5c2.9-1.9,4.1-1.5,4.1-1.5,0.8,2.1,0.3,3.6,0.1,4,1,1,1.5,2.4,1.5,4,0,5.8-3.5,7-6.8,7.4,0.5,0.5,1,1.4,1,2.8v4.1c0,0.4,0.3,0.9,1,0.7,6-2,10.2-7.6,10.2-14.2,0.1-8.2-6.6-14.9-14.9-14.9z" fill-rule="evenodd" clip-rule="evenodd" fill="#008000"/>
 </svg>
 <view viewBox="100 300 50 50"/>
 <svg viewBox="0 0 50 50" width="50" version="1.1" y="300" x="100" height="50" fill="#008000">
  <g fill="#008000" clip-rule="evenodd" fill-rule="evenodd">
   <path d="M18,23v4.8h7.9c-0.3,2.1-2.4,6-7.9,6-4.8,0-8.7-4-8.7-8.8s3.9-8.8,8.7-8.8c2.7,0,4.5,1.2,5.6,2.2l3.8-3.7c-2.5-2.3-5.6-3.7-9.4-3.7-7.7,0-14,6.3-14,14s6.3,14,14,14c8.1,0,13.4-5.7,13.4-13.7,0-0.9-0.1-1.6-0.2-2.3h-13.2z"/>
   <path d="M48,23h-4v-4h-4v4h-4v4h4v4h4v-4h4z"/>
  </g>
 </svg>
 <view viewBox="150 300 50 50"/>
 <svg viewBox="0 0 50 50" width="50" version="1.1" y="300" x="150" height="50" fill="#008000">
  <path d="M35,23h-2.3c0.2,0.6,0.3,1.3,0.3,2,0,4.4-3.6,8-8,8s-8-3.6-8-8c0-0.7,0.1-1.4,0.3-2h-2.3v11c0,0.6,0.4,1,1,1h18c0.6,0,1-0.4,1-1v-11zm0-7c0-0.6-0.4-1-1-1h-3c-0.6,0-1,0.4-1,1v3c0,0.6,0.4,1,1,1h3c0.6,0,1-0.4,1-1v-3zm-10,4c-2.8,0-5,2.2-5,5s2.2,5,5,5,5-2.2,5-5-2.2-5-5-5m10,18h-20c-1.7,0-3-1.3-3-3v-20c0-1.7,1.3-3,3-3h20c1.7,0,3,1.3,3,3v20c0,1.7-1.3,3-3,3" fill-rule="evenodd" clip-rule="evenodd" fill="#008000"/>
 </svg>
 <view viewBox="200 300 50 50"/>
 <svg viewBox="0 0 50 50" width="50" version="1.1" y="300" x="200" height="50" fill="#008000">
  <path d="M36.1,12h-22.2c-1.1,0-1.9,0.8-1.9,1.9v22.2c0,1,0.9,1.9,1.9,1.9h22.2c1.1,0,1.9-0.8,1.9-1.9v-22.2c0-1.1-0.9-1.9-1.9-1.9zm-16.1,22h-4v-12h4v12zm-2-13.6c-1.3,0-2.4-1.1-2.4-2.4s1.1-2.4,2.4-2.4,2.4,1.1,2.4,2.4-1.1,2.4-2.4,2.4zm16,13.6h-4v-6c0-1.6-0.4-3.2-2-3.2s-2,1.6-2,3.2v6h-4v-12h4v1.4h0.2c0.5-1,1.8-1.8,3.3-1.8,3.7,0,4.5,2.4,4.5,5.4v7z" fill="#008000"/>
 </svg>
 <view viewBox="250 300 50 50"/>
 <svg viewBox="0 0 50 50" width="50" version="1.1" y="300" x="250" height="50" fill="#008000">
  <path d="M25,26c-4.4,0-8-3.6-8-8s3.6-8,8-8,8,3.6,8,8-3.6,8-8,8zm0-12.2c-2.3,0-4.2,1.9-4.2,4.2s1.9,4.2,4.2,4.2,4.2-1.9,4.2-4.2-1.9-4.2-4.2-4.2z"/>
  <path d="M33.6,26.8c-0.7-0.9-1.9-1-2.8-0.4,0,0-2.2,1.6-5.8,1.6s-5.8-1.6-5.8-1.6c-0.9-0.7-2.1-0.5-2.8,0.4s-0.5,2.1,0.4,2.8c0.1,0.1,2.2,1.7,5.7,2.2l-5.3,5.4c-0.8,0.8-0.8,2.1,0,2.8,0.4,0.4,0.9,0.6,1.4,0.6s1-0.2,1.4-0.6l5-5.1,5,5.1c0.4,0.4,0.9,0.6,1.4,0.6s1-0.2,1.4-0.6c0.8-0.8,0.8-2,0-2.8l-5.3-5.4c3.5-0.6,5.6-2.2,5.7-2.2,0.9-0.7,1.1-2,0.4-2.8z"/>
 </svg>
 <view viewBox="300 300 50 50"/>
 <svg viewBox="0 0 50 50" width="50" version="1.1" y="300" x="300" height="50" fill="#008000">
  <path fill="#008000" d="M25,10c-8.3,0-15,6.7-15,15,0,6.4,4,11.8,9.5,14-0.1-1.2-0.2-3,0.1-4.3,0.3-1.2,1.8-7.5,1.8-7.5s-0.4-0.9-0.4-2.2c0-2.1,1.2-3.6,2.7-3.6,1.3,0,1.9,1,1.9,2.1,0,1.3-0.8,3.2-1.2,5-0.4,1.5,0.7,2.7,2.2,2.7,2.7,0,4.7-2.8,4.7-6.9,0-3.6-2.6-6.1-6.3-6.1-4.3,0-6.8,3.2-6.8,6.5,0,1.3,0.5,2.7,1.1,3.4,0.1,0.1,0.1,0.3,0.1,0.4-0.1,0.5-0.4,1.5-0.4,1.7-0.1,0.3-0.2,0.3-0.5,0.2-1.9-0.9-3-3.6-3-5.8,0-4.7,3.4-9.1,9.9-9.1,5.2,0,9.2,3.7,9.2,8.7,0,5.2-3.3,9.3-7.8,9.3-1.5,0-2.9-0.8-3.4-1.7,0,0-0.8,2.9-0.9,3.6-0.3,1.3-1.3,2.9-1.9,3.9,1.4,0.5,2.9,0.7,4.4,0.7,8.3,0,15-6.7,15-15s-6.7-15-15-15z"/>
 </svg>
 <view viewBox="350 0 50 50"/>
 <svg viewBox="0 0 50 50" width="50" version="1.1" x="350" height="50" fill="#008000">
  <path fill="#008000" d="M38,27.3c0.1-0.8,0.2-1.6,0.2-2.4,0-1.8-0.3-3.5-1-5.1s-1.6-3-2.8-4.2-2.6-2.2-4.2-2.8c-1.6-0.7-3.4-1-5.1-1-0.8,0-1.7,0.1-2.5,0.2-1.1-0.6-2.4-0.9-3.7-0.9-2.1,0-4.1,0.8-5.5,2.3-1.5,1.5-2.3,3.4-2.3,5.5,0,1.3,0.3,2.6,1,3.8-0.1,0.7-0.2,1.5-0.2,2.3,0,1.8,0.3,3.5,1,5.1s1.6,3,2.8,4.2,2.6,2.2,4.2,2.8c1.6,0.7,3.4,1,5.1,1,0.8,0,1.6-0.1,2.3-0.2,1.2,0.7,2.5,1,3.9,1,2.1,0,4.1-0.8,5.5-2.3,1.5-1.5,2.3-3.4,2.3-5.5,0-1.3-0.3-2.6-1-3.8zm-12.9,5.7c-4.7,0-6.8-2.3-6.8-4,0-0.9,0.7-1.5,1.6-1.5,2,0,1.5,2.9,5.2,2.9,1.9,0,3-1,3-2.1,0-0.6-0.3-1.4-1.6-1.7l-4.2-1c-3.4-0.8-4-2.7-4-4.4,0-3.6,3.3-4.9,6.5-4.9,2.9,0,6.3,1.6,6.3,3.7,0,0.9-0.8,1.4-1.7,1.4-1.7,0-1.4-2.4-4.9-2.4-1.7,0-2.7,0.8-2.7,1.9s1.4,1.5,2.5,1.7l3.1,0.7c3.4,0.8,4.2,2.7,4.2,4.6,0.1,2.9-2.1,5.1-6.5,5.1z"/>
 </svg>
 <view viewBox="350 50 50 50"/>
 <svg viewBox="0 0 50 50" width="50" version="1.1" y="50" x="350" height="50" fill="#008000">
  <path d="M40,24h-0.2c-0.9-4.6-5-8-9.8-8-3.1,0-5.9,1.4-7.7,3.7-0.2,0.3-0.3,0.6-0.3,1.2l-0.4,9.1,0.4,5.5c0,0.3,0.3,0.5,0.5,0.5h17.5c3.3,0,6-2.7,6-6s-2.7-6-6-6z"/>
  <path d="M18.9,20c-0.3,0-0.5,0.2-0.5,0.5l-0.8,9v1l0.8,5c0,0.3,0.3,0.5,0.6,0.5h0.2c0.3,0,0.5-0.2,0.6-0.5l0.8-5c0-0.3,0.1-0.7,0-1l-0.8-9c0-0.3-0.3-0.5-0.5-0.5h-0.4z"/>
  <path d="M14.9,21c-0.3,0-0.5,0.2-0.5,0.5l-0.8,8v1l0.8,5c0,0.3,0.3,0.5,0.6,0.5h0.2c0.3,0,0.5-0.2,0.6-0.5l0.8-5c0-0.3,0.1-0.7,0-1l-0.8-8c0-0.3-0.3-0.5-0.5-0.5h-0.4z"/>
  <path d="M11,24c-0.3,0-0.5,0.2-0.6,0.5l-0.8,5v1l0.8,5c0,0.3,0.3,0.5,0.6,0.5s0.5-0.2,0.6-0.5l0.8-5v-1l-0.8-5c-0.1-0.3-0.3-0.5-0.6-0.5z"/>
  <path d="M7,23c-0.3,0-0.5,0.2-0.6,0.5l-0.9,6v1l0.8,5c0.2,0.3,0.4,0.5,0.7,0.5s0.5-0.2,0.6-0.5l0.8-5c0-0.3,0.1-0.7,0-1l-0.9-6c0-0.3-0.2-0.5-0.5-0.5z"/>
  <path d="M3.3,26c-0.3,0-0.5,0.2-0.6,0.5l-0.6,3c-0.1,0.3-0.1,0.7,0,1l0.6,4c0.1,0.3,0.3,0.5,0.6,0.5s0.5-0.2,0.6-0.5l0.6-4v-1l-0.6-3c-0.1-0.3-0.3-0.5-0.6-0.5z"/>
 </svg>
 <view viewBox="350 100 50 50"/>
 <svg viewBox="0 0 50 50" width="50" version="1.1" y="100" x="350" height="50" fill="#008000">
  <path fill="#008000" d="M30.9,32.4c-0.5,0.2-1.5,0.5-2.3,0.5-2.2,0.1-2.7-1.6-2.7-2.8v-8.7h5.6v-4.2h-5.5v-7.2h-4.1c-0.1,0-0.2,0.1-0.2,0.2-0.2,2.2-1.3,6-5.5,7.5v3.6h2.8v9.1c0,3.1,2.3,7.6,8.4,7.5,2.1,0,4.3-0.9,4.8-1.6l-1.3-3.9z"/>
 </svg>
 <view viewBox="350 150 50 50"/>
 <svg viewBox="0 0 50 50" width="50" version="1.1" y="150" x="350" height="50" fill="#008000">
  <path fill="#008000" d="M39.2,16.8c-1.1,0.5-2.2,0.8-3.5,1,1.2-0.8,2.2-1.9,2.7-3.3-1.2,0.7-2.5,1.2-3.8,1.5-1.1-1.2-2.7-1.9-4.4-1.9-3.3,0-6.1,2.7-6.1,6.1,0,0.5,0.1,0.9,0.2,1.4-5-0.2-9.5-2.7-12.5-6.3-0.5,0.7-0.8,1.7-0.8,2.8,0,2.1,1.1,4,2.7,5-1,0-1.9-0.3-2.7-0.8v0.1c0,2.9,2.1,5.4,4.9,5.9-0.5,0.1-1,0.2-1.6,0.2-0.4,0-0.8,0-1.1-0.1,0.8,2.4,3,4.2,5.7,4.2-2.1,1.6-4.7,2.6-7.5,2.6-0.5,0-1,0-1.4-0.1,2.4,1.9,5.6,2.9,9,2.9,11.1,0,17.2-9.2,17.2-17.2v-0.8c1.2-0.9,2.2-1.9,3-3.2z"/>
 </svg>
 <view viewBox="350 200 50 50"/>
 <svg viewBox="0 0 50 50" width="50" version="1.1" y="200" x="350" height="50" fill="#008000">
  <path fill="#008000" d="M38,19.6c-0.1,2.7-2,6.4-5.6,11.1-3.8,4.9-7,7.4-9.6,7.4-1.6,0-3-1.5-4.1-4.5-0.7-2.7-1.5-5.5-2.2-8.2-0.8-3-1.7-4.5-2.7-4.5-0.2,0-0.9,0.4-2.2,1.3l-1.3-1.7c1.4-1.2,2.7-2.4,4-3.6,1.8-1.6,3.2-2.4,4.1-2.5,2.2-0.2,3.5,1.3,4,4.4,0.5,3.4,0.9,5.5,1.1,6.4,0.6,2.8,1.3,4.2,2.1,4.2,0.6,0,1.5-0.9,2.6-2.8,1.2-1.8,1.8-3.2,1.9-4.2,0.2-1.6-0.5-2.4-1.9-2.4-0.7,0-1.3,0.2-2,0.5,1.4-4.5,4-6.6,7.8-6.5,2.8,0.1,4.2,1.9,4,5.6z"/>
 </svg>
 <view viewBox="350 250 50 50"/>
 <svg viewBox="0 0 50 50" width="50" version="1.1" y="250" x="350" height="50" fill="#008000">
  <path d="M25.1,35.9h2s0.6-0.1,0.9-0.4c0.3-0.3,0.3-0.9,0.3-0.9s0-2.6,1.2-3c1.2-0.4,2.8,2.6,4.4,3.7,1.2,0.9,2.1,0.7,2.1,0.7l4.4-0.1s2.3-0.1,1.2-2c-0.1-0.1-0.6-1.3-3.3-3.8-2.8-2.6-2.4-2.1,0.9-6.6,2-2.7,2.8-4.3,2.6-5.1-0.2-0.7-1.7-0.5-1.7-0.5h-5s-0.4-0.1-0.6,0.1c-0.3,0.2-0.4,0.5-0.4,0.5s-0.8,2.1-1.8,3.9c-2.2,3.7-3.1,3.9-3.4,3.7-0.8-0.5-0.6-2.2-0.6-3.3,0-3.6,0.6-5.1-1.1-5.5-0.5-0.1-0.9-0.2-2.3-0.2-1.8,0-3.3,0-4.1,0.4-0.6,0.3-1,0.9-0.7,0.9s1.1,0.2,1.5,0.7c0.4,0.9,0.4,2.4,0.4,2.4s0.3,4.3-0.7,4.8c-0.7,0.4-1.6-0.4-3.6-3.8-1-1.7-1.8-3.7-1.8-3.7s-0.1-0.4-0.4-0.6c-0.3-0.2-0.8-0.3-0.8-0.3h-4.7s-0.7,0-1,0.3c-0.2,0.3,0,0.8,0,0.8s3.7,8.6,7.9,13c3.9,4.2,8.2,3.9,8.2,3.9z" fill-rule="evenodd" clip-rule="evenodd" fill="#008000"/>
 </svg>
 <view viewBox="350 300 50 50"/>
 <svg viewBox="0 0 50 50" width="50" version="1.1" y="300" x="350" height="50" fill="#008000">
  <path fill="#008000" d="M39.7,18.6s-0.3-2.1-1.2-3c-1.1-1.2-2.4-1.2-3-1.3-4.2-0.3-10.5-0.3-10.5-0.3s-6.3,0-10.5,0.3c-0.6,0.1-1.9,0.1-3,1.3-0.9,0.9-1.2,3-1.2,3s-0.3,2.4-0.3,4.8v2.2c0,2.4,0.3,4.9,0.3,4.9s0.3,2.1,1.2,3c1.1,1.2,2.6,1.2,3.3,1.3,2.4,0.1,10.2,0.2,10.2,0.2s6.3,0,10.5-0.3c0.6-0.1,1.9-0.1,3-1.3,0.9-0.9,1.2-3,1.2-3s0.3-2.4,0.3-4.8v-2.2c0-2.4-0.3-4.8-0.3-4.8zm-17.8,9.8v-8.4l8.1,4.2-8.1,4.2z"/>
 </svg>
 <view viewBox="0 350 50 50"/>
 <svg viewBox="0 0 50 50" width="50" version="1.1" y="350" height="50" fill="#008000">
  <path d="M23,36c-7.2,0-13-5.8-13-13s5.8-13,13-13,13,5.8,13,13-5.8,13-13,13zm0-24c-6.1,0-11,4.9-11,11s4.9,11,11,11,11-4.9,11-11-4.9-11-11-11z"/>
  <path d="M32.682,31.267l8.98,8.98-1.414,1.414-8.98-8.98z"/>
 </svg>
 <view viewBox="50 350 50 50"/>
 <svg viewBox="0 0 50 50" width="50" version="1.1" y="350" x="50" height="50" fill="#008000">
  <path d="M30.3,13.7l-5.3-5.3-5.3,5.3-1.4-1.4,6.7-6.7,6.7,6.7z"/>
  <path d="M24,7h2v21h-2z"/>
  <path d="M35,40h-20c-1.7,0-3-1.3-3-3v-18c0-1.7,1.3-3,3-3h7v2h-7c-0.6,0-1,0.4-1,1v18c0,0.6,0.4,1,1,1h20c0.6,0,1-0.4,1-1v-18c0-0.6-0.4-1-1-1h-7v-2h7c1.7,0,3,1.3,3,3v18c0,1.7-1.3,3-3,3z"/>
 </svg>
 <view viewBox="100 350 50 50"/>
 <svg viewBox="0 0 50 50" width="50" version="1.1" y="350" x="100" height="50" fill="#008000">
  <path d="M15,30c-2.8,0-5-2.2-5-5s2.2-5,5-5,5,2.2,5,5-2.2,5-5,5zm0-8c-1.7,0-3,1.3-3,3s1.3,3,3,3,3-1.3,3-3-1.3-3-3-3z"/>
  <path d="M35,20c-2.8,0-5-2.2-5-5s2.2-5,5-5,5,2.2,5,5-2.2,5-5,5zm0-8c-1.7,0-3,1.3-3,3s1.3,3,3,3,3-1.3,3-3-1.3-3-3-3z"/>
  <path d="M35,40c-2.8,0-5-2.2-5-5s2.2-5,5-5,5,2.2,5,5-2.2,5-5,5zm0-8c-1.7,0-3,1.3-3,3s1.3,3,3,3,3-1.3,3-3-1.3-3-3-3z"/>
  <path d="M19.007,25.885l12.88,6.44-0.895,1.788-12.88-6.44z"/>
  <path d="M30.993,15.885l0.894,1.79-12.88,6.438-0.894-1.79z"/>
 </svg>
 <view viewBox="150 350 50 50"/>
 <svg viewBox="0 0 50 50" width="50" version="1.1" y="350" x="150" height="50" fill="#008000">
  <path d="M25,18c-0.6,0-1-0.4-1-1v-8c0-0.6,0.4-1,1-1s1,0.4,1,1v8c0,0.6-0.4,1-1,1z"/>
  <path opacity=".3" d="M25,42c-0.6,0-1-0.4-1-1v-8c0-0.6,0.4-1,1-1s1,0.4,1,1v8c0,0.6-0.4,1-1,1z"/>
  <path opacity=".3" d="M29,19c-0.2,0-0.3,0-0.5-0.1-0.4-0.3-0.6-0.8-0.3-1.3l4-6.9c0.3-0.4,0.8-0.6,1.3-0.3,0.4,0.3,0.6,0.8,0.3,1.3l-4,6.9c-0.2,0.2-0.5,0.4-0.8,0.4z"/>
  <path opacity=".3" d="M17,39.8c-0.2,0-0.3,0-0.5-0.1-0.4-0.3-0.6-0.8-0.3-1.3l4-6.9c0.3-0.4,0.8-0.6,1.3-0.3,0.4,0.3,0.6,0.8,0.3,1.3l-4,6.9c-0.2,0.2-0.5,0.4-0.8,0.4z"/>
  <path opacity=".93" d="M21,19c-0.3,0-0.6-0.2-0.8-0.5l-4-6.9c-0.3-0.4-0.1-1,0.3-1.3s1-0.1,1.3,0.3l4,6.9c0.3,0.4,0.1,1-0.3,1.3-0.2,0.2-0.3,0.2-0.5,0.2z"/>
  <path opacity=".3" d="M33,39.8c-0.3,0-0.6-0.2-0.8-0.5l-4-6.9c-0.3-0.4-0.1-1,0.3-1.3s1-0.1,1.3,0.3l4,6.9c0.3,0.4,0.1,1-0.3,1.3-0.2,0.1-0.3,0.2-0.5,0.2z"/>
  <path opacity=".65" d="M17,26h-8c-0.6,0-1-0.4-1-1s0.4-1,1-1h8c0.6,0,1,0.4,1,1s-0.4,1-1,1z"/>
  <path opacity=".3" d="M41,26h-8c-0.6,0-1-0.4-1-1s0.4-1,1-1h8c0.6,0,1,0.4,1,1s-0.4,1-1,1z"/>
  <path opacity=".86" d="M18.1,21.9c-0.2,0-0.3,0-0.5-0.1l-6.9-4c-0.4-0.3-0.6-0.8-0.3-1.3,0.3-0.4,0.8-0.6,1.3-0.3l6.9,4c0.4,0.3,0.6,0.8,0.3,1.3-0.2,0.3-0.5,0.4-0.8,0.4z"/>
  <path opacity=".3" d="M38.9,33.9c-0.2,0-0.3,0-0.5-0.1l-6.9-4c-0.4-0.3-0.6-0.8-0.3-1.3,0.3-0.4,0.8-0.6,1.3-0.3l6.9,4c0.4,0.3,0.6,0.8,0.3,1.3-0.2,0.3-0.5,0.4-0.8,0.4z"/>
  <path opacity=".44" d="M11.1,33.9c-0.3,0-0.6-0.2-0.8-0.5-0.3-0.4-0.1-1,0.3-1.3l6.9-4c0.4-0.3,1-0.1,1.3,0.3s0.1,1-0.3,1.3l-6.9,4c-0.1,0.2-0.3,0.2-0.5,0.2z"/>
  <path opacity=".3" d="M31.9,21.9c-0.3,0-0.6-0.2-0.8-0.5-0.3-0.4-0.1-1,0.3-1.3l6.9-4c0.4-0.3,1-0.1,1.3,0.3s0.1,1-0.3,1.3l-6.9,4c-0.2,0.2-0.3,0.2-0.5,0.2z"/>
 </svg>
 <view viewBox="200 350 50 50"/>
 <svg viewBox="0 0 50 50" width="50" version="1.1" y="350" x="200" height="50" fill="#008000">
  <circle cy="10" cx="25" r="2"/>
  <circle opacity="0.3" cy="40" cx="25" r="2"/>
  <circle opacity="0.3" cy="12" cx="32.5" r="2"/>
  <circle opacity="0.3" cy="38" cx="17.5" r="2"/>
  <circle opacity="0.93" cy="12" cx="17.5" r="2"/>
  <circle opacity="0.3" cy="38" cx="32.5" r="2"/>
  <circle opacity="0.65" cy="25" cx="10" r="2"/>
  <circle opacity="0.3" cy="25" cx="40" r="2"/>
  <circle opacity="0.86" cy="17.5" cx="12" r="2"/>
  <circle opacity="0.3" cy="32.5" cx="38" r="2"/>
  <circle opacity="0.44" cy="32.5" cx="12" r="2"/>
  <circle opacity="0.3" cy="17.5" cx="38" r="2"/>
 </svg>
 <view viewBox="250 350 50 50"/>
 <svg viewBox="0 0 50 50" width="50" version="1.1" y="350" x="250" height="50" fill="#008000">
  <path fill="#008000" d="M41.9,23.9c-0.3-6.1-4-11.8-9.5-14.4-6-2.7-13.3-1.6-18.3,2.6-4.8,4-7,10.5-5.6,16.6,1.3,6,6,10.9,11.9,12.5,7.1,2,13.6-1.4,17.6-7.2-3.6,4.8-9.1,8-15.2,6.9s-11.1-5.7-12.5-11.7c-1.5-6.4,1.5-13.1,7.2-16.4,5.9-3.4,14.2-2.1,18.1,3.7,1,1.4,1.7,3.1,2,4.8,0.3,1.4,0.2,2.9,0.4,4.3,0.2,1.3,1.3,3,2.8,2.1,1.3-0.8,1.2-2.5,1.1-3.8z"/>
 </svg>
 <view viewBox="300 350 50 50"/>
 <svg viewBox="0 0 50 50" width="50" version="1.1" y="350" x="300" height="50" fill="#008000">
  <path fill="#008000" d="M15.2,40.6c-0.2,0-0.4-0.1-0.6-0.2-0.4-0.3-0.5-0.7-0.4-1.1l3.9-12-10.2-7.5c-0.4-0.3-0.5-0.7-0.4-1.1s0.5-0.7,1-0.7h12.7l3.8-12.1c0.1-0.4,0.5-0.7,1-0.7s0.8,0.3,1,0.7l3.9,12.1h12.7c0.4,0,0.8,0.2,1,0.6s0,0.9-0.4,1.1l-10.2,7.4,3.9,12c0.1,0.4,0,0.9-0.4,1.1s-0.8,0.3-1.2,0l-10.3-7.2-10.2,7.4c-0.2,0.1-0.4,0.2-0.6,0.2zm10.8-9.9c0.2,0,0.4,0.1,0.6,0.2l8.3,6.1-3.2-9.8c-0.1-0.4,0-0.9,0.4-1.1l8.3-6.1h-10.3c-0.4,0-0.8-0.3-1-0.7l-3.1-9.8-3.2,9.8c-0.1,0.4-0.5,0.7-1,0.7h-10.3l8.3,6.1c0.4,0.3,0.5,0.7,0.4,1.1l-3.1,9.8,8.3-6.1c0.2-0.1,0.4-0.2,0.6-0.2z"/>
 </svg>
 <view viewBox="350 350 50 50"/>
 <svg viewBox="0 0 50 50" width="50" version="1.1" y="350" x="350" height="50" fill="#008000">
  <path d="M22,40.1c-0.9,0-1.7-0.3-2.3-0.9l-8.9-8.9c-1.2-1.2-1.2-3.3,0-4.5l11.9-11.9c1-1,3-1.8,4.5-1.8h7.6c1.8,0,3.2,1.4,3.2,3.2v7.6c0,1.5-0.8,3.4-1.8,4.5l-11.9,11.8c-0.6,0.6-1.4,0.9-2.3,0.9zm5.2-26.1c-1,0-2.4,0.6-3,1.3l-11.9,11.9c-0.5,0.5-0.5,1.2,0,1.7l8.9,8.9c0.5,0.4,1.2,0.4,1.7,0l11.9-11.9c0.7-0.7,1.3-2.1,1.3-3v-7.6c0-0.7-0.5-1.2-1.2-1.2h-7.7z"/>
  <path d="M30,24c-2.2,0-4-1.8-4-4s1.8-4,4-4,4,1.8,4,4-1.8,4-4,4zm0-6c-1.1,0-2,0.9-2,2s0.9,2,2,2,2-0.9,2-2-0.9-2-2-2z"/>
 </svg>
 <view viewBox="400 0 50 50"/>
 <svg viewBox="0 0 50 50" width="50" version="1.1" x="400" height="50" fill="#008000">
  <path d="M20,18h2v16h-2z"/>
  <path d="M24,18h2v16h-2z"/>
  <path d="M28,18h2v16h-2z"/>
  <path d="M12,12h26v2h-26z"/>
  <path d="M30,12h-2v-1c0-0.6-0.4-1-1-1h-4c-0.6,0-1,0.4-1,1v1h-2v-1c0-1.7,1.3-3,3-3h4c1.7,0,3,1.3,3,3v1z"/>
  <path d="M31,40h-12c-1.6,0-3-1.3-3.2-2.9l-1.8-24,2-0.2,1.8,24c0,0.6,0.6,1.1,1.2,1.1h12c0.6,0,1.1-0.5,1.2-1.1l1.8-24,2,0.2-1.8,24c-0.2,1.6-1.6,2.9-3.2,2.9z"/>
 </svg>
 <view viewBox="400 50 50 50"/>
 <svg viewBox="0 0 50 50" width="50" version="1.1" y="50" x="400" height="50" fill="#008000">
  <path d="M28.6,29.4c3-2.3,7.4-5.7,7.4-18.4v-1h-22v1c0,12.7,4.5,16.1,7.4,18.4,1.7,1.3,2.6,2,2.6,3.6v3c-1.6,0.2-3.2,0.8-3.8,2h-2.2c-1.1,0-2,0.9-2,2h18c0-1.1-0.9-2-2-2h-2.2c-0.6-1.2-2.1-1.8-3.8-2v-3c0-1.6,0.8-2.3,2.6-3.6zm-3.6,0.5c-0.6-0.8-1.5-1.5-2.3-2.1-2.7-2.1-6.4-4.9-6.6-15.8h18c-0.2,10.8-3.9,13.7-6.6,15.8-1,0.7-1.9,1.3-2.5,2.1z"/>
  <path d="M18.8,27c-0.1,0-10.8-2.3-10.8-14v-1h7v2h-5c0.6,9.2,9.1,11,9.2,11l-0.4,2z"/>
  <path d="M31.2,27l-0.4-2c0.4-0.1,8.6-1.9,9.2-11h-5v-2h7v1c0,11.7-10.7,14-10.8,14z"/>
 </svg>
 <view viewBox="400 100 50 50"/>
 <svg viewBox="0 0 50 50" width="50" version="1.1" y="100" x="400" height="50" fill="#008000">
  <path d="M25,38c-5.1,0-9.7-3-11.8-7.6l1.8-0.8c1.8,3.9,5.7,6.4,10,6.4,6.1,0,11-4.9,11-11s-4.9-11-11-11c-4.6,0-8.5,2.8-10.1,7.3l-1.9-0.7c1.9-5.2,6.6-8.6,12-8.6,7.2,0,13,5.8,13,13s-5.8,13-13,13z"/>
  <path d="M20,22h-8v-8h2v6h6z"/>
 </svg>
 <view viewBox="400 150 50 50"/>
 <svg viewBox="0 0 50 50" width="50" version="1.1" y="150" x="400" height="50" fill="#008000">
  <path d="M18,23h-2v-4c0-5,4-9,9-9,4.5,0,8.4,3.4,8.9,7.9l-2,0.2c-0.4-3.5-3.4-6.1-6.9-6.1-3.9,0-7,3.1-7,7v4z"/>
  <path d="M33,40h-16c-1.7,0-3-1.3-3-3v-12c0-1.7,1.3-3,3-3h16c1.7,0,3,1.3,3,3v12c0,1.7-1.3,3-3,3zm-16-16c-0.6,0-1,0.4-1,1v12c0,0.6,0.4,1,1,1h16c0.6,0,1-0.4,1-1v-12c0-0.6-0.4-1-1-1h-16z"/>
  <circle d="m 27,28 c 0,1.104569 -0.895431,2 -2,2 -1.104569,0 -2,-0.895431 -2,-2 0,-1.104569 0.895431,-2 2,-2 1.104569,0 2,0.895431 2,2 z" cy="28" cx="25" r="2"/>
  <path d="M25.5,28h-1l-1,6h3z"/>
 </svg>
 <view viewBox="400 200 50 50"/>
 <svg viewBox="0 0 50 50" width="50" version="1.1" y="200" x="400" height="50" fill="#008000">
  <path d="M25.1,42c-9.4,0-17-7.6-17-17s7.6-17,17-17,17,7.6,17,17-7.7,17-17,17zm0-32c-8.3,0-15,6.7-15,15s6.7,15,15,15,15-6.7,15-15-6.8-15-15-15z"/>
  <path d="M15.3,37.3l-1.8-0.8c0.5-1.2,2.1-1.9,3.8-2.7s3.8-1.7,3.8-2.8v-1.5c-0.6-0.5-1.6-1.6-1.8-3.2-0.5-0.5-1.3-1.4-1.3-2.6,0-0.7,0.3-1.3,0.5-1.7-0.2-0.8-0.4-2.3-0.4-3.5,0-3.9,2.7-6.5,7-6.5,1.2,0,2.7,0.3,3.5,1.2,1.9,0.4,3.5,2.6,3.5,5.3,0,1.7-0.3,3.1-0.5,3.8,0.2,0.3,0.4,0.8,0.4,1.4,0,1.3-0.7,2.2-1.3,2.6-0.2,1.6-1.1,2.6-1.7,3.1v1.6c0,0.9,1.8,1.6,3.4,2.2,1.9,0.7,3.9,1.5,4.6,3.1l-1.9,0.7c-0.3-0.8-1.9-1.4-3.4-1.9-2.2-0.8-4.7-1.7-4.7-4v-2.6l0.5-0.3s1.2-0.8,1.2-2.4v-0.7l0.6-0.3c0.1,0,0.6-0.3,0.6-1.1,0-0.2-0.2-0.5-0.3-0.6l-0.4-0.4,0.2-0.5s0.5-1.6,0.5-3.6c0-1.9-1.1-3.3-2-3.3h-0.6l-0.3-0.5c0-0.4-0.7-0.8-1.9-0.8-3.1,0-5,1.7-5,4.5,0,1.3,0.5,3.5,0.5,3.5l0.1,0.5-0.4,0.5c-0.1,0-0.3,0.3-0.3,0.7,0,0.5,0.6,1.1,0.9,1.3l0.4,0.3v0.5c0,1.5,1.3,2.3,1.3,2.4l0.5,0.3v2.6c0,2.4-2.6,3.6-5,4.6-1.1,0.4-2.6,1.1-2.8,1.6z"/>
 </svg>
 <rect fill-opacity="0.6895" ry="10" height="115.25" width="438.98" y="132.2" x="8.4746" fill="#789a21"/>
 <text stroke-linejoin="round" style="letter-spacing:0px;word-spacing:0px;" font-family="Sans" font-weight="normal" xml:space="preserve" stroke-dashoffset="18.89999933" stroke-dasharray="4.5, 4.5" font-size="40px" stroke="#00006d" stroke-linecap="round" stroke-miterlimit="4" font-style="normal" y="206.38324" x="228.63994" stroke-width="4.5" line-height="125%" fill="none"><tspan stroke-linejoin="round" style="text-anchor:middle;text-align:center;" stroke-dasharray="4.5, 4.5" font-weight="normal" font-size="60px" stroke-dashoffset="18.89999933" stroke="#00006d" stroke-linecap="round" stroke-miterlimit="4" y="206.38324" x="228.63994" stroke-width="4.5" fill="none">SVG спрайты</tspan></text>
</svg>
